<?xml version="1.0" encoding="UTF-8" standalone="no"?>
<svg
   xmlns:dc="http://purl.org/dc/elements/1.1/"
   xmlns:cc="http://creativecommons.org/ns#"
   xmlns:rdf="http://www.w3.org/1999/02/22-rdf-syntax-ns#"
   xmlns:svg="http://www.w3.org/2000/svg"
   xmlns="http://www.w3.org/2000/svg"
   xmlns:xlink="http://www.w3.org/1999/xlink"
   id="svg8"
   version="1.1"
   viewBox="0 0 117.71611 117.71611"
   height="117.71611mm"
   width="117.71611mm">
  <defs
     id="defs2">
    <linearGradient
       id="linearGradient7712">
      <stop
         id="stop7708"
         offset="0"
         style="stop-color:#f2462a;stop-opacity:1" />
      <stop
         id="stop7710"
         offset="1"
         style="stop-color:#00d1d0;stop-opacity:1" />
    </linearGradient>
    <linearGradient
       y2="446.53485"
       x2="234.49722"
       y1="138.62956"
       x1="411.09622"
       gradientUnits="userSpaceOnUse"
       id="linearGradient7720"
       xlink:href="#linearGradient7712"
       gradientTransform="matrix(0.26458333,0,0,0.26458333,22.151191,62.955043)" />
  </defs>
  <metadata
     id="metadata5">
    <rdf:RDF>
      <cc:Work
         rdf:about="">
        <dc:format>image/svg+xml</dc:format>
        <dc:type
           rdf:resource="http://purl.org/dc/dcmitype/StillImage" />
        <dc:title></dc:title>
      </cc:Work>
    </rdf:RDF>
  </metadata>
  <g
     transform="translate(-51.932821,-83.760948)"
     id="layer1">
    <path
       d="m 113.84792,83.761008 c -0.54435,-0.0049 -1.0492,0.283549 -1.32137,0.754993 -0.41707,0.722337 -0.16949,1.646015 0.55294,2.062923 0.72234,0.417072 1.64601,0.169493 2.06292,-0.552938 0.41673,-0.722221 0.16919,-1.645512 -0.55293,-2.062406 -0.22557,-0.130366 -0.48104,-0.200151 -0.74156,-0.202572 z m -7.54166,1.935282 c -0.55688,0.0092 -1.06809,0.309933 -1.34669,0.7922 -0.43776,0.758317 -0.17795,1.727925 0.58033,2.165759 0.75832,0.437759 1.72793,0.177948 2.16576,-0.580326 0.43776,-0.758317 0.17795,-1.727925 -0.58033,-2.165759 -0.24879,-0.143508 -0.53189,-0.216739 -0.81907,-0.211874 z m 12.29744,0.810804 c -0.54434,-0.0049 -1.0492,0.283548 -1.32137,0.754992 -0.41672,0.722222 -0.16918,1.645512 0.55294,2.062407 0.7222,0.41716 1.64584,0.169824 2.06293,-0.552421 0.41707,-0.722337 0.16949,-1.646015 -0.55294,-2.062923 -0.22562,-0.130186 -0.48108,-0.199792 -0.74156,-0.202055 z m -19.785872,1.119828 c -0.589891,0.0047 -1.133255,0.321187 -1.428337,0.83199 -0.459817,0.796265 -0.187032,1.814521 0.609266,2.27428 0.796264,0.459817 1.814521,0.187034 2.274283,-0.609264 0.45982,-0.796264 0.18703,-1.814522 -0.609268,-2.274281 -0.257085,-0.148322 -0.54915,-0.225219 -0.845944,-0.222725 z m 12.244212,0.814937 c -0.55698,0.0093 -1.06822,0.310251 -1.34669,0.792717 -0.43775,0.758317 -0.17794,1.727928 0.58033,2.16576 0.75832,0.437759 1.72793,0.177948 2.16576,-0.580326 0.43776,-0.758317 0.17795,-1.727927 -0.58033,-2.165761 -0.24874,-0.143688 -0.53184,-0.217099 -0.81907,-0.21239 z m -7.48843,1.930632 c -0.59,0.0048 -1.13339,0.321505 -1.42834,0.832506 -0.45982,0.796266 -0.18703,1.814526 0.60927,2.274286 0.7964,0.45972 1.8147,0.1867 2.27428,-0.60979 0.45947,-0.796147 0.18672,-1.814015 -0.60927,-2.27376 -0.25703,-0.148503 -0.5491,-0.225579 -0.84594,-0.223242 z m 12.24421,0.814938 c -0.55698,0.0093 -1.06821,0.31025 -1.34668,0.792715 -0.43776,0.758317 -0.17795,1.727929 0.58032,2.165759 0.75843,0.43811 1.72843,0.17826 2.16628,-0.58033 0.43767,-0.75845 0.17762,-1.728098 -0.58084,-2.165755 -0.24875,-0.143688 -0.53185,-0.217099 -0.81908,-0.212389 z m 12.29745,0.810802 c -0.54435,-0.0049 -1.0492,0.283549 -1.32137,0.754994 -0.41707,0.722338 -0.1695,1.646008 0.55294,2.062918 0.72233,0.41708 1.64601,0.1695 2.06292,-0.55293 0.41672,-0.72222 0.16919,-1.645516 -0.55294,-2.062409 -0.22557,-0.130366 -0.48103,-0.200152 -0.74155,-0.202573 z m -32.030609,0.301273 c -0.624208,2.38e-4 -1.20092,0.333306 -1.513086,0.873849 -0.482788,0.83608 -0.196353,1.90523 0.639755,2.38797 0.836078,0.48279 1.90523,0.19635 2.387967,-0.63976 0.482701,-0.83621 0.196025,-1.9054 -0.64027,-2.387964 -0.265848,-0.153447 -0.567412,-0.234185 -0.874366,-0.234095 z m 12.244729,0.819069 c -0.58989,0.005 -1.13325,0.32119 -1.42833,0.83199 -0.45982,0.79627 -0.18703,1.81452 0.60926,2.27428 0.79627,0.45982 1.81452,0.18704 2.27428,-0.60926 0.45982,-0.79626 0.18704,-1.81452 -0.60926,-2.27428 -0.25709,-0.14832 -0.54915,-0.22522 -0.84595,-0.22273 z m 12.24422,0.81494 c -0.55688,0.009 -1.06809,0.30993 -1.34669,0.7922 -0.43811,0.75843 -0.17826,1.72843 0.58033,2.16628 0.75856,0.43802 1.7286,0.17792 2.16627,-0.58085 0.43776,-0.75831 0.17795,-1.72792 -0.58032,-2.16575 -0.24895,-0.1436 -0.53224,-0.21684 -0.81959,-0.21188 z m -31.978414,0.28887 c -0.659818,-0.004 -1.271051,0.34633 -1.600936,0.91777 -0.506899,0.8779 -0.206121,2.00049 0.671793,2.50734 0.87789,0.50691 2.000488,0.20613 2.507343,-0.67179 0.506812,-0.87802 0.205793,-2.00066 -0.672312,-2.50734 -0.275537,-0.15913 -0.587708,-0.24389 -0.905888,-0.24598 z m 44.275854,0.52193 c -0.54435,-0.005 -1.0492,0.28355 -1.32137,0.755 -0.41672,0.72222 -0.16918,1.64551 0.55294,2.0624 0.7222,0.41716 1.64584,0.16983 2.06292,-0.55242 0.41707,-0.72234 0.16949,-1.64601 -0.55294,-2.06292 -0.22562,-0.13019 -0.48108,-0.19979 -0.74155,-0.20206 z m -32.03061,0.30076 c -0.62431,2.7e-4 -1.201049,0.33362 -1.513083,0.87436 -0.482436,0.83597 -0.196043,1.90473 0.639755,2.38746 0.836078,0.48278 1.905228,0.19635 2.387968,-0.63976 0.48243,-0.83596 0.19604,-1.90473 -0.63976,-2.38745 -0.26594,-0.15371 -0.5677,-0.23463 -0.87488,-0.23461 z m 12.24474,0.81907 c -0.59,0.005 -1.13339,0.32151 -1.42834,0.83251 -0.45947,0.79615 -0.18672,1.81402 0.60926,2.27376 0.79627,0.45982 1.81453,0.18704 2.27428,-0.60926 0.45982,-0.79627 0.18704,-1.81452 -0.60926,-2.27428 -0.25709,-0.14832 -0.54915,-0.22522 -0.84594,-0.22273 z m 12.24421,0.81494 c -0.55698,0.009 -1.06822,0.31025 -1.34669,0.79272 -0.43776,0.75831 -0.17795,1.72792 0.58033,2.16576 0.75843,0.438107 1.72843,0.17825 2.16627,-0.58033 0.43776,-0.75832 0.17795,-1.72793 -0.58032,-2.16576 -0.2489,-0.14378 -0.53219,-0.21719 -0.81959,-0.21239 z m -31.978412,0.28887 c -0.659818,-0.004 -1.27105,0.34632 -1.600935,0.91777 -0.506902,0.87789 -0.206124,2.00049 0.671792,2.507347 0.877891,0.5069 2.000489,0.20612 2.507343,-0.671797 0.506812,-0.87803 0.205793,-2.00066 -0.672312,-2.50734 -0.275537,-0.15913 -0.587708,-0.24389 -0.905888,-0.24598 z m 44.275852,0.52193 c -0.54435,-0.005 -1.0492,0.28355 -1.32137,0.755 -0.41707,0.72233 -0.16949,1.64601 0.55294,2.062917 0.72234,0.41707 1.64602,0.16949 2.06292,-0.552937 0.41673,-0.72222 0.16919,-1.64551 -0.55293,-2.0624 -0.22558,-0.13037 -0.48104,-0.20016 -0.74156,-0.20258 z m -32.03061,0.30128 c -0.6242,2.3e-4 -1.20092,0.3333 -1.51308,0.87385 -0.48279,0.83607 -0.19635,1.905227 0.63975,2.387957 0.83608,0.48279 1.90524,0.19636 2.38797,-0.63975 0.48279,-0.836077 0.19636,-1.905227 -0.63975,-2.387967 -0.266,-0.15353 -0.56775,-0.23427 -0.87489,-0.23409 z m 12.24474,0.81855 c -0.59,0.005 -1.13339,0.32151 -1.42834,0.83251 -0.45982,0.796257 -0.18703,1.814517 0.60927,2.274277 0.79626,0.45981 1.81452,0.18703 2.27428,-0.60927 0.45982,-0.79626 0.18703,-1.814517 -0.60927,-2.274277 -0.25703,-0.1485 -0.5491,-0.22558 -0.84594,-0.22324 z m -32.014586,0.27647 c -0.0084,1.2e-4 -0.01688,2.6e-4 -0.02532,5.3e-4 -0.675359,0.0128 -1.294715,0.37826 -1.632461,0.96325 -0.532384,0.921817 -0.21655,2.100697 0.705385,2.632907 0.921829,0.53239 2.100709,0.21655 2.632914,-0.70538 0.532386,-0.92183 0.216553,-2.100707 -0.705382,-2.632917 -0.296339,-0.17118 -0.632915,-0.26036 -0.975135,-0.25838 z m 44.258796,0.53847 c -0.55698,0.009 -1.06822,0.31025 -1.34669,0.792707 -0.43775,0.75832 -0.17794,1.72793 0.58033,2.16576 0.75843,0.43811 1.72843,0.17826 2.16628,-0.58032 0.43775,-0.75832 0.17794,-1.72793 -0.58033,-2.165757 -0.24889,-0.14378 -0.53219,-0.2172 -0.81959,-0.21239 z m -31.97841,0.28939 c -0.659712,-0.004 -1.270918,0.345997 -1.600935,0.917247 -0.5069,0.87789 -0.206121,2.00049 0.671793,2.50734 0.87789,0.50691 2.000488,0.20613 2.507342,-0.67179 0.5069,-0.87789 0.206121,-2.00049 -0.671796,-2.507337 -0.275738,-0.15903 -0.588097,-0.24362 -0.906404,-0.24546 z m 12.24525,0.822687 c -0.62421,2.3e-4 -1.20092,0.3333 -1.51309,0.87384 -0.48278,0.83608 -0.19635,1.90523 0.63976,2.38797 0.83608,0.48279 1.90523,0.19635 2.38796,-0.63975 0.48279,-0.83608 0.19636,-1.90523 -0.63975,-2.38797 -0.266,-0.15353 -0.56775,-0.23428 -0.87488,-0.23409 z m -32.043007,0.26355 c -0.713298,0.01 -1.368869,0.39399 -1.725475,1.01182 -0.558763,0.9678 -0.227229,2.20532 0.740521,2.76417 0.967917,0.55912 2.205826,0.22754 2.76469,-0.74052 0.558678,-0.96794 0.226901,-2.2055 -0.74104,-2.76417 -0.315492,-0.1823 -0.674352,-0.27604 -1.038696,-0.2713 z m 44.287737,0.55552 c -0.58989,0.005 -1.13326,0.32119 -1.42834,0.83199 -0.45981,0.79626 -0.18703,1.81452 0.60927,2.27428 0.79626,0.45981 1.81452,0.18703 2.27428,-0.60927 0.45981,-0.79626 0.18703,-1.81452 -0.60927,-2.27428 -0.25708,-0.14832 -0.54915,-0.22522 -0.84594,-0.22272 z m -32.039905,0.27647 c -0.675465,0.0129 -1.294844,0.37858 -1.63246,0.96376 -0.532035,0.92172 -0.216242,2.10021 0.705384,2.6324 0.92183,0.53238 2.10071,0.21655 2.632914,-0.70539 0.532034,-0.92171 0.216244,-2.1002 -0.705382,-2.63239 -0.286163,-0.16535 -0.610039,-0.25433 -0.940512,-0.25838 -0.01998,-2.7e-4 -0.03996,-2.7e-4 -0.05994,0 z m 44.284115,0.53846 c -0.55688,0.009 -1.06809,0.30994 -1.34668,0.7922 -0.43811,0.75843 -0.17826,1.72843 0.58032,2.16628 0.75843,0.43811 1.72843,0.17826 2.16628,-0.58033 0.43811,-0.75843 0.17826,-1.72842 -0.58033,-2.16627 -0.24894,-0.1436 -0.53224,-0.21684 -0.81959,-0.21188 z m -31.97841,0.28887 c -0.65982,-0.004 -1.27105,0.34633 -1.60093,0.91778 -0.50691,0.87789 -0.20613,2.00049 0.67179,2.50734 0.87789,0.5069 2.00048,0.20612 2.50734,-0.6718 0.5069,-0.87789 0.20612,-2.00048 -0.67179,-2.50734 -0.27569,-0.15921 -0.58805,-0.24398 -0.90641,-0.24598 z m -32.046619,0.2496 c -0.752504,0.007 -1.44539,0.41072 -1.821595,1.06247 -0.586865,1.0163 -0.238647,2.31593 0.777732,2.90266 1.016301,0.58687 2.315929,0.23865 2.902664,-0.77772 0.586864,-1.01631 0.238646,-2.31594 -0.777732,-2.90267 -0.32848,-0.18971 -0.701757,-0.28803 -1.081069,-0.28474 z m 44.291869,0.57309 c -0.62431,2.7e-4 -1.20105,0.33363 -1.51309,0.87437 -0.48278,0.83608 -0.19635,1.90523 0.63976,2.38797 0.83621,0.4827 1.90541,0.19602 2.38797,-0.64028 0.48243,-0.83596 0.19604,-1.90472 -0.63976,-2.38744 -0.26595,-0.15372 -0.5677,-0.23464 -0.87488,-0.23462 z m -32.043005,0.26407 c -0.713195,0.009 -1.368742,0.39367 -1.725477,1.01131 -0.559028,0.96805 -0.227209,2.206 0.741042,2.76469 0.967936,0.55867 2.2055,0.2269 2.764171,-0.74104 0.558678,-0.96794 0.226901,-2.20551 -0.74104,-2.76418 -0.315542,-0.18211 -0.674402,-0.27567 -1.038696,-0.27078 z m 44.287735,0.555 c -0.59,0.005 -1.13339,0.32151 -1.42834,0.83251 -0.45946,0.79615 -0.18672,1.81402 0.60927,2.27377 0.79626,0.45982 1.81452,0.18703 2.27428,-0.60927 0.45947,-0.79615 0.18672,-1.81402 -0.60927,-2.27376 -0.25703,-0.14851 -0.5491,-0.22558 -0.84594,-0.22325 z m -32.014582,0.27647 c -0.0084,1.2e-4 -0.01688,2.7e-4 -0.02532,5.3e-4 -0.675357,0.0128 -1.294712,0.37827 -1.632458,0.96325 -0.532034,0.92172 -0.216241,2.10021 0.705385,2.6324 0.921829,0.53238 2.100709,0.21655 2.632914,-0.70538 0.532034,-0.92172 0.216243,-2.10021 -0.705382,-2.6324 -0.296339,-0.17118 -0.632915,-0.26037 -0.975135,-0.25839 z m 44.258792,0.53847 c -0.55698,0.009 -1.06821,0.31025 -1.34668,0.79272 -0.43776,0.75832 -0.17795,1.72793 0.58032,2.16576 0.75844,0.43811 1.72843,0.17826 2.16628,-0.58033 0.43776,-0.75832 0.17795,-1.72793 -0.58033,-2.16576 -0.24889,-0.14378 -0.53219,-0.21719 -0.81959,-0.21239 z m -31.9784,0.28887 c -0.65982,-0.004 -1.27105,0.34633 -1.60094,0.91778 -0.5069,0.87789 -0.20612,2.00048 0.67179,2.50734 0.87789,0.5069 2.00049,0.20612 2.50734,-0.6718 0.5069,-0.87789 0.20613,-2.00048 -0.67179,-2.50734 -0.27569,-0.15921 -0.58805,-0.24398 -0.9064,-0.24598 z m -32.046627,0.25012 c -0.752398,0.006 -1.44526,0.4104 -1.821595,1.06195 -0.586864,1.0163 -0.238646,2.31593 0.777729,2.90266 1.016302,0.58687 2.315933,0.23865 2.902667,-0.77773 0.586513,-1.01618 0.238337,-2.31542 -0.777732,-2.90215 -0.32848,-0.18971 -0.701757,-0.28802 -1.081069,-0.28473 z m 44.291867,0.57309 c -0.6242,2.4e-4 -1.20092,0.3333 -1.51308,0.87385 -0.48279,0.83608 -0.19636,1.90523 0.63975,2.38797 0.83608,0.48278 1.90523,0.19635 2.38797,-0.63976 0.48279,-0.83608 0.19635,-1.90523 -0.63976,-2.38797 -0.26599,-0.15353 -0.56775,-0.23427 -0.87488,-0.23409 z m -32.043003,0.26355 c -0.7133,0.01 -1.368872,0.39399 -1.725477,1.01182 -0.558676,0.96794 -0.226899,2.2055 0.741042,2.76418 0.967801,0.55876 2.205323,0.22722 2.764171,-0.74053 0.559028,-0.96805 0.227208,-2.206 -0.74104,-2.76469 -0.315542,-0.18212 -0.674401,-0.27567 -1.038696,-0.27078 z m 44.287733,0.555 c -0.58999,0.005 -1.13338,0.32151 -1.42833,0.83251 -0.45982,0.79627 -0.18704,1.81452 0.60926,2.27428 0.79626,0.45982 1.81452,0.18703 2.27428,-0.60926 0.45982,-0.79627 0.18703,-1.81452 -0.60926,-2.27428 -0.25704,-0.14851 -0.5491,-0.22558 -0.84595,-0.22325 z m -32.01458,0.27647 c -0.008,1.2e-4 -0.0169,2.7e-4 -0.0253,5.3e-4 -0.675357,0.0128 -1.294713,0.37827 -1.632458,0.96325 -0.532387,0.92183 -0.216554,2.10071 0.705384,2.63292 0.921834,0.53238 2.100714,0.21655 2.632914,-0.70539 0.53238,-0.92183 0.21655,-2.10071 -0.70539,-2.63291 -0.29633,-0.17118 -0.63291,-0.26036 -0.97513,-0.25838 z m -32.015617,0.23565 c -0.793433,0.004 -1.525204,0.42851 -1.921846,1.11569 -0.615844,1.06712 -0.250069,2.43143 0.817004,3.04736 1.066985,0.61593 2.431256,0.2504 3.04736,-0.81649 0.61628,-1.0671 0.250706,-2.43175 -0.816489,-3.04787 -0.342265,-0.19753 -0.730856,-0.30061 -1.126029,-0.29869 z m 44.296007,0.59221 c -0.65982,-0.004 -1.27105,0.34632 -1.60094,0.91777 -0.50655,0.87778 -0.20581,1.99998 0.6718,2.50683 0.87789,0.5069 2.00048,0.20612 2.50733,-0.6718 0.50655,-0.87777 0.20582,-1.99998 -0.67179,-2.50682 -0.27569,-0.15922 -0.58805,-0.24398 -0.9064,-0.24598 z m -32.046625,0.2496 c -0.752504,0.007 -1.445389,0.41072 -1.821595,1.06246 -0.586512,1.01619 -0.238337,2.31543 0.777729,2.90215 1.016167,0.58695 2.315756,0.23898 2.902667,-0.77721 0.586865,-1.0163 0.238647,-2.31593 -0.777732,-2.90267 -0.32848,-0.18971 -0.701757,-0.28802 -1.081069,-0.28473 z m 76.322475,0.27233 c -0.54416,-0.005 -1.04877,0.28371 -1.32085,0.75499 -0.41681,0.72209 -0.16952,1.64534 0.55242,2.06241 0.7222,0.41716 1.64584,0.16982 2.06292,-0.55242 0.41708,-0.72234 0.1695,-1.64602 -0.55294,-2.06292 -0.22562,-0.13019 -0.48108,-0.19979 -0.74155,-0.20206 z m -32.03061,0.30076 c -0.62431,2.6e-4 -1.20105,0.33362 -1.51308,0.87436 -0.48243,0.83597 -0.19604,1.90473 0.63975,2.38745 0.83608,0.48279 1.90523,0.19636 2.38797,-0.63975 0.48279,-0.83608 0.19635,-1.90523 -0.63975,-2.38797 -0.266,-0.15353 -0.56776,-0.23427 -0.87489,-0.23409 z m -32.043001,0.26407 c -0.713194,0.009 -1.368742,0.39367 -1.725477,1.0113 -0.558678,0.96794 -0.226901,2.20551 0.74104,2.76418 0.967803,0.55876 2.205326,0.22723 2.764173,-0.74053 0.558678,-0.96794 0.226902,-2.2055 -0.74104,-2.76417 -0.315542,-0.18212 -0.674401,-0.27567 -1.038696,-0.27078 z m 44.287741,0.555 c -0.58989,0.005 -1.13326,0.32119 -1.42834,0.83199 -0.45982,0.79626 -0.18703,1.81452 0.60926,2.27428 0.79627,0.45982 1.81453,0.18704 2.27428,-0.60927 0.45982,-0.79626 0.18704,-1.81452 -0.60926,-2.27427 -0.25709,-0.14833 -0.54915,-0.22522 -0.84594,-0.22273 z m -32.03991,0.27647 c -0.67546,0.0129 -1.29485,0.37858 -1.63246,0.96376 -0.53203,0.92172 -0.21624,2.10021 0.70539,2.6324 0.92182,0.53239 2.10071,0.21655 2.63291,-0.70538 0.53203,-0.92172 0.21624,-2.10021 -0.70538,-2.6324 -0.28617,-0.16534 -0.61004,-0.25432 -0.94051,-0.25838 -0.02,-2.7e-4 -0.04,-2.7e-4 -0.06,0 z m -31.990295,0.23513 c -0.793433,0.004 -1.525204,0.4285 -1.921846,1.11569 -0.616196,1.06724 -0.250378,2.43193 0.817004,3.04788 1.067123,0.61584 2.431431,0.25006 3.04736,-0.81701 0.615931,-1.06698 0.250396,-2.43125 -0.816488,-3.04736 -0.342215,-0.19771 -0.730811,-0.30097 -1.12603,-0.2992 z m 76.274415,0.30334 c -0.5568,0.01 -1.0678,0.3104 -1.34617,0.79271 -0.43776,0.75832 -0.17795,1.72793 0.58032,2.16576 0.75832,0.43776 1.72793,0.17795 2.16576,-0.58032 0.43776,-0.75832 0.17795,-1.72793 -0.58032,-2.16576 -0.2489,-0.14378 -0.53219,-0.2172 -0.81959,-0.21239 z m -31.97841,0.28887 c -0.65982,-0.004 -1.27105,0.34632 -1.60094,0.91777 -0.50689,0.87789 -0.20612,2.00049 0.6718,2.50734 0.87789,0.5069 2.00048,0.20612 2.50734,-0.67179 0.5069,-0.87789 0.20612,-2.00049 -0.6718,-2.50734 -0.27568,-0.15922 -0.58805,-0.24398 -0.9064,-0.24598 z m -32.046622,0.25011 c -0.752399,0.006 -1.44526,0.41041 -1.821596,1.06195 -0.586864,1.0163 -0.238646,2.31593 0.77773,2.90267 1.016301,0.58686 2.315932,0.23865 2.902667,-0.77773 0.586864,-1.01631 0.238646,-2.31593 -0.777732,-2.90267 -0.328531,-0.18953 -0.701805,-0.28766 -1.081069,-0.28422 z m 44.291872,0.57309 c -0.62421,2.4e-4 -1.20092,0.33331 -1.51309,0.87385 -0.48279,0.83608 -0.19635,1.90523 0.63976,2.38797 0.83607,0.48279 1.90523,0.19635 2.38796,-0.63975 0.48279,-0.83608 0.19636,-1.90523 -0.63975,-2.38797 -0.266,-0.15354 -0.56775,-0.23428 -0.87488,-0.2341 z m -32.043008,0.26355 c -0.713301,0.01 -1.368872,0.39399 -1.725478,1.01183 -0.558676,0.96793 -0.226899,2.2055 0.74104,2.76417 0.967938,0.55868 2.205503,0.2269 2.764173,-0.74104 0.558676,-0.96794 0.226899,-2.2055 -0.741039,-2.76417 -0.315542,-0.18212 -0.674402,-0.27568 -1.038696,-0.27079 z m -31.992879,0.22015 c -0.8356,10e-4 -1.607299,0.44739 -2.025201,1.17098 -0.646779,1.12036 -0.262964,2.5529 0.857314,3.19981 1.120351,0.64678 2.552893,0.26296 3.199804,-0.85731 0.64678,-1.12036 0.262965,-2.5529 -0.857313,-3.19981 -0.357106,-0.20611 -0.762288,-0.31431 -1.174604,-0.31367 z m 76.280617,0.33486 c -0.59,0.005 -1.13339,0.3215 -1.42834,0.83251 -0.45982,0.79626 -0.18703,1.81452 0.60927,2.27428 0.7964,0.45973 1.8147,0.1867 2.27428,-0.60979 0.45946,-0.79615 0.18672,-1.81402 -0.60927,-2.27376 -0.25703,-0.1485 -0.5491,-0.22558 -0.84594,-0.22324 z m -32.01458,0.27647 c -0.008,1.1e-4 -0.0169,2.6e-4 -0.0253,5.3e-4 -0.67535,0.0128 -1.29471,0.37827 -1.63245,0.96324 -0.53239,0.92184 -0.21656,2.10072 0.70538,2.63292 0.92183,0.53239 2.10071,0.21655 2.63292,-0.70538 0.53238,-0.92183 0.21655,-2.10071 -0.70539,-2.63292 -0.29634,-0.17118 -0.63291,-0.26036 -0.97513,-0.25838 z m -32.015623,0.23564 c -0.793327,0.004 -1.525074,0.42819 -1.921846,1.11518 -0.616196,1.06724 -0.250378,2.43193 0.817004,3.04788 1.066985,0.61593 2.431257,0.25039 3.04736,-0.81649 0.616281,-1.0671 0.250706,-2.43176 -0.816488,-3.04788 -0.342265,-0.19753 -0.730856,-0.30061 -1.12603,-0.29869 z m 76.274413,0.30283 c -0.5568,0.009 -1.0678,0.3104 -1.34617,0.79271 -0.43776,0.75832 -0.17795,1.72793 0.58033,2.16576 0.75831,0.43776 1.72792,0.17795 2.16576,-0.58033 0.43776,-0.75831 0.17794,-1.72792 -0.58033,-2.16575 -0.24889,-0.14378 -0.53219,-0.2172 -0.81959,-0.21239 z m -31.97841,0.28938 c -0.65971,-0.004 -1.27092,0.34601 -1.60093,0.91726 -0.5069,0.87789 -0.20612,2.00049 0.67179,2.50734 0.87789,0.5069 2.00048,0.20612 2.50734,-0.67179 0.5069,-0.87789 0.20612,-2.00049 -0.67179,-2.50734 -0.27574,-0.15904 -0.5881,-0.24363 -0.90641,-0.24547 z m -32.046623,0.2496 c -0.752504,0.007 -1.445387,0.41072 -1.821593,1.06247 -0.586512,1.01619 -0.238336,2.31543 0.77773,2.90215 1.016304,0.58686 2.315932,0.23864 2.902667,-0.77773 0.586512,-1.01619 0.238336,-2.31543 -0.777732,-2.90215 -0.328481,-0.18971 -0.701757,-0.28803 -1.081072,-0.28474 z m 44.291873,0.57309 c -0.62421,2.4e-4 -1.20092,0.33331 -1.51309,0.87385 -0.48278,0.83608 -0.19635,1.90523 0.63976,2.38797 0.83608,0.48279 1.90523,0.19635 2.38797,-0.63976 0.48278,-0.83607 0.19635,-1.90523 -0.63976,-2.38796 -0.266,-0.15354 -0.56775,-0.23428 -0.87488,-0.2341 z m -32.04301,0.26355 c -0.7133,0.01 -1.36887,0.39399 -1.72547,1.01183 -0.558682,0.96794 -0.22691,2.2055 0.74104,2.76417 0.9678,0.55876 2.20532,0.22723 2.76417,-0.74052 0.55876,-0.96781 0.22723,-2.20533 -0.74052,-2.76418 -0.31565,-0.18239 -0.6747,-0.27612 -1.03922,-0.2713 z m -31.992875,0.22014 c -0.835599,0.001 -1.607299,0.4474 -2.025201,1.17099 -0.647131,1.12047 -0.263273,2.5534 0.857314,3.20032 1.120354,0.64678 2.552893,0.26297 3.199805,-0.85731 0.647131,-1.12047 0.263273,-2.5534 -0.857314,-3.20032 -0.357105,-0.20611 -0.762288,-0.31431 -1.174604,-0.31368 z m 76.280615,0.33538 c -0.58989,0.005 -1.13325,0.32119 -1.42834,0.83199 -0.45981,0.79627 -0.18703,1.81452 0.60927,2.27428 0.79626,0.45982 1.81452,0.18704 2.27428,-0.60926 0.45982,-0.79626 0.18703,-1.81452 -0.60927,-2.27428 -0.25708,-0.14832 -0.54915,-0.22522 -0.84594,-0.22273 z m -32.03939,0.27647 c -0.67565,0.0127 -1.29526,0.37843 -1.63297,0.96377 -0.53195,0.92185 -0.21592,2.10039 0.7059,2.6324 0.92171,0.53203 2.10021,0.21624 2.63239,-0.70539 0.53239,-0.92183 0.21656,-2.10071 -0.70538,-2.63291 -0.28606,-0.16508 -0.60974,-0.25388 -0.93999,-0.25787 -0.02,-2.6e-4 -0.04,-2.6e-4 -0.06,0 z m -31.990811,0.23513 c -0.793247,0.004 -1.52478,0.42867 -1.92133,1.11569 -0.615931,1.06699 -0.250396,2.43126 0.816488,3.04736 1.066986,0.61594 2.431257,0.2504 3.04736,-0.81648 0.615932,-1.06699 0.250396,-2.43126 -0.816488,-3.04736 -0.342215,-0.19772 -0.730811,-0.30098 -1.12603,-0.29921 z m 76.274931,0.30334 c -0.55688,0.009 -1.06809,0.30993 -1.34669,0.7922 -0.43811,0.75843 -0.17826,1.72843 0.58033,2.16628 0.75845,0.43767 1.7281,0.17761 2.16576,-0.58085 0.43775,-0.75831 0.17794,-1.72792 -0.58033,-2.16576 -0.24879,-0.1435 -0.53189,-0.21673 -0.81907,-0.21187 z m -31.97841,0.28887 c -0.66,-0.004 -1.27148,0.34617 -1.60145,0.91778 -0.5069,0.87789 -0.20612,2.00048 0.67179,2.50734 0.87789,0.5069 2.00049,0.20612 2.50734,-0.6718 0.5069,-0.87789 0.20613,-2.00048 -0.67179,-2.50734 -0.27554,-0.15913 -0.58771,-0.24389 -0.90589,-0.24598 z m -32.046622,0.2496 c -0.752689,0.006 -1.445813,0.41056 -1.822111,1.06247 -0.586865,1.0163 -0.238647,2.31593 0.777729,2.90266 1.016302,0.58687 2.31593,0.23865 2.902664,-0.77773 0.586865,-1.0163 0.238647,-2.31593 -0.777729,-2.90266 -0.328327,-0.18962 -0.701416,-0.28794 -1.080553,-0.28474 z m -31.996496,0.20412 c -0.879496,-7.9e-4 -1.692447,0.46822 -2.132171,1.2299 -0.679255,1.17643 -0.27622,2.68075 0.900205,3.36 1.176424,0.67926 2.680747,0.27622 3.360002,-0.9002 0.679254,-1.17643 0.276219,-2.68075 -0.900205,-3.36 -0.373314,-0.2156 -0.796735,-0.3293 -1.227831,-0.3297 z m 76.287848,0.36897 c -0.62431,2.7e-4 -1.20105,0.33362 -1.51308,0.87437 -0.48244,0.83596 -0.19605,1.90473 0.63975,2.38745 0.83608,0.48279 1.90523,0.19635 2.38797,-0.63976 0.48243,-0.83596 0.19604,-1.90473 -0.63976,-2.38745 -0.26595,-0.15371 -0.5677,-0.23463 -0.87488,-0.23461 z m -32.043,0.26407 c -0.7132,0.009 -1.36875,0.39367 -1.72548,1.0113 -0.55868,0.96794 -0.2269,2.20551 0.74104,2.76418 0.9678,0.55876 2.20533,0.22723 2.76417,-0.74053 0.55877,-0.9678 0.22723,-2.20532 -0.74052,-2.76417 -0.31569,-0.18221 -0.67474,-0.27576 -1.03921,-0.27078 z m -31.992883,0.21962 c -0.835708,10e-4 -1.607431,0.44772 -2.0252,1.17151 -0.64678,1.12035 -0.262964,2.55289 0.857311,3.1998 1.120468,0.64714 2.553395,0.26328 3.200323,-0.85731 0.646692,-1.12049 0.262633,-2.55307 -0.85783,-3.1998 -0.357055,-0.20629 -0.76224,-0.31467 -1.174604,-0.3142 z m 76.280613,0.33538 c -0.58999,0.005 -1.13338,0.32151 -1.42833,0.83251 -0.45947,0.79615 -0.18673,1.81402 0.60926,2.27376 0.79627,0.45982 1.81452,0.18704 2.27428,-0.60926 0.45982,-0.79627 0.18703,-1.81452 -0.60927,-2.27428 -0.25708,-0.14832 -0.54914,-0.22522 -0.84594,-0.22273 z m -32.03939,0.27647 c -0.67546,0.0129 -1.29484,0.37859 -1.63246,0.96377 -0.53203,0.92171 -0.21624,2.10021 0.70539,2.63239 0.92171,0.53204 2.10021,0.21625 2.6324,-0.70538 0.53203,-0.92171 0.21624,-2.10021 -0.70539,-2.6324 -0.28601,-0.16526 -0.6097,-0.25423 -0.93999,-0.25838 -0.02,-2.6e-4 -0.04,-2.6e-4 -0.06,0 z m -31.990809,0.23565 c -0.793141,0.004 -1.524648,0.42834 -1.92133,1.11517 -0.616283,1.0671 -0.250708,2.43176 0.816489,3.04788 1.067122,0.61584 2.43143,0.25007 3.047359,-0.817 0.615932,-1.06699 0.250397,-2.43126 -0.816488,-3.04736 -0.342265,-0.19754 -0.730856,-0.30061 -1.12603,-0.29869 z m 44.296519,0.59169 c -0.66,-0.004 -1.27147,0.34617 -1.60145,0.91778 -0.5069,0.87789 -0.20612,2.00048 0.67179,2.50734 0.87789,0.50689 2.00049,0.20612 2.50734,-0.6718 0.5069,-0.87789 0.20612,-2.00048 -0.67179,-2.50734 -0.27554,-0.15913 -0.58771,-0.24389 -0.90589,-0.24598 z m -32.04662,0.25012 c -0.752583,0.006 -1.445681,0.41024 -1.822111,1.06195 -0.586865,1.0163 -0.238649,2.31593 0.777729,2.90266 1.016304,0.58687 2.315932,0.23865 2.902662,-0.77773 0.58687,-1.0163 0.23865,-2.31593 -0.77773,-2.90266 -0.32838,-0.18945 -0.70146,-0.28758 -1.08055,-0.28422 z m -31.996496,0.20412 c -0.879496,-8e-4 -1.692447,0.46822 -2.132171,1.2299 -0.678903,1.1763 -0.27591,2.68024 0.900205,3.35948 1.176422,0.67926 2.680745,0.27622 3.359999,-0.9002 0.679254,-1.17642 0.27622,-2.68075 -0.900202,-3.36 -0.373362,-0.21542 -0.79678,-0.32894 -1.227831,-0.32918 z m 76.287846,0.36897 c -0.6242,2.4e-4 -1.20092,0.3333 -1.51308,0.87385 -0.48279,0.83607 -0.19635,1.90523 0.63975,2.38796 0.83608,0.48279 1.90523,0.19636 2.38797,-0.63975 0.48279,-0.83608 0.19635,-1.90523 -0.63975,-2.38797 -0.266,-0.15353 -0.56776,-0.23427 -0.87489,-0.23409 z m -32.043,0.26355 c -0.7133,0.01 -1.36887,0.39399 -1.72548,1.01182 -0.55867,0.96794 -0.2269,2.2055 0.74104,2.76417 0.9678,0.55877 2.20533,0.22723 2.76417,-0.74052 0.55912,-0.96792 0.22754,-2.20583 -0.74052,-2.76469 -0.31569,-0.18221 -0.67474,-0.27577 -1.03921,-0.27078 z m -31.992881,0.22014 c -0.835599,0.001 -1.607299,0.44739 -2.0252,1.17099 -0.647134,1.12046 -0.263276,2.55339 0.857311,3.20032 1.120603,0.64705 2.553573,0.26294 3.200323,-0.85783 0.646692,-1.12049 0.262633,-2.55307 -0.85783,-3.19981 -0.357105,-0.20611 -0.762288,-0.31431 -1.174604,-0.31367 z m 76.280611,0.33486 c -0.58999,0.005 -1.13338,0.32151 -1.42833,0.83251 -0.45982,0.79626 -0.18704,1.81452 0.60926,2.27428 0.79627,0.45981 1.81452,0.18703 2.27428,-0.60927 0.45982,-0.79626 0.18703,-1.81452 -0.60926,-2.27428 -0.25704,-0.1485 -0.54911,-0.22557 -0.84595,-0.22324 z m -32.01458,0.27647 c -0.008,1.2e-4 -0.0169,2.7e-4 -0.0253,5.3e-4 -0.67517,0.013 -1.29429,0.37843 -1.63194,0.96325 -0.53239,0.92183 -0.21655,2.10071 0.70538,2.63291 0.92172,0.53204 2.10021,0.21625 2.6324,-0.70538 0.53238,-0.92183 0.21655,-2.10071 -0.70539,-2.63291 -0.29633,-0.17118 -0.63291,-0.26037 -0.97513,-0.25839 z m -32.015616,0.23564 c -0.793248,0.004 -1.524781,0.42867 -1.92133,1.1157 -0.615932,1.06698 -0.250397,2.43126 0.816488,3.04736 1.066985,0.61593 2.431256,0.2504 3.047359,-0.81649 0.616281,-1.0671 0.250706,-2.43176 -0.816488,-3.04788 -0.342265,-0.19753 -0.730856,-0.30061 -1.126029,-0.29869 z m 44.296516,0.59222 c -0.65989,-0.004 -1.27134,0.34584 -1.60145,0.91725 -0.5069,0.87789 -0.20612,2.00049 0.6718,2.50734 0.87789,0.5069 2.00048,0.20612 2.50734,-0.67179 0.5069,-0.87789 0.20612,-2.00049 -0.6718,-2.50734 -0.27558,-0.15895 -0.58775,-0.24354 -0.90589,-0.24546 z m -32.04662,0.24959 c -0.75269,0.006 -1.44581,0.41057 -1.82211,1.06247 -0.58651,1.01619 -0.23834,2.31543 0.77773,2.90215 1.0163,0.58686 2.31593,0.23865 2.90267,-0.77773 0.58651,-1.01619 0.23833,-2.31543 -0.77774,-2.90215 -0.32832,-0.18962 -0.70141,-0.28793 -1.08055,-0.28474 z m -31.996494,0.20413 c -0.879496,-8e-4 -1.692447,0.46822 -2.132171,1.2299 -0.679252,1.17642 -0.276217,2.68074 0.900205,3.36 1.176422,0.67925 2.680745,0.27622 3.359999,-0.90021 0.679255,-1.17642 0.27622,-2.68074 -0.900202,-3.36 -0.373314,-0.2156 -0.796735,-0.32929 -1.227831,-0.32969 z m 76.287854,0.36897 c -0.62421,2.3e-4 -1.20092,0.3333 -1.51309,0.87384 -0.48279,0.83608 -0.19635,1.90523 0.63975,2.38797 0.83608,0.48279 1.90523,0.19636 2.38797,-0.63975 0.48279,-0.83608 0.19635,-1.90523 -0.63975,-2.38797 -0.266,-0.15353 -0.56776,-0.23427 -0.87488,-0.23409 z m -32.04301,0.26354 c -0.7133,0.01 -1.36887,0.39399 -1.72548,1.01183 -0.55867,0.96794 -0.2269,2.2055 0.74104,2.76417 0.96781,0.55877 2.20533,0.22723 2.76418,-0.74052 0.55876,-0.9678 0.22723,-2.20533 -0.74053,-2.76417 -0.31564,-0.18239 -0.67469,-0.27613 -1.03921,-0.27131 z m -31.992879,0.22015 c -0.835707,0.001 -1.607431,0.44771 -2.0252,1.1715 -0.646779,1.12035 -0.262964,2.5529 0.857311,3.19981 1.120468,0.64713 2.553396,0.26327 3.200323,-0.85731 0.647047,-1.12061 0.262946,-2.55358 -0.857829,-3.20033 -0.357106,-0.20611 -0.762289,-0.31431 -1.174605,-0.31367 z m 76.280609,0.33538 c -0.58988,0.005 -1.13325,0.32118 -1.42833,0.83199 -0.45982,0.79626 -0.18703,1.81452 0.60926,2.27428 0.79627,0.45981 1.81452,0.18703 2.27428,-0.60927 0.45982,-0.79626 0.18704,-1.81452 -0.60926,-2.27428 -0.25709,-0.14832 -0.54915,-0.22522 -0.84595,-0.22272 z m -32.03938,0.27646 c -0.67547,0.0129 -1.29485,0.37859 -1.63246,0.96377 -0.53204,0.92172 -0.21624,2.10021 0.70538,2.6324 0.92172,0.53203 2.10021,0.21624 2.6324,-0.70538 0.53204,-0.92172 0.21624,-2.10021 -0.70538,-2.6324 -0.28601,-0.16526 -0.6097,-0.25424 -0.94,-0.25839 -0.02,-2.6e-4 -0.04,-2.6e-4 -0.0599,0 z m -31.990814,0.23513 c -0.793248,0.004 -1.524781,0.42867 -1.92133,1.1157 -0.615932,1.06698 -0.250397,2.43125 0.816488,3.04736 1.066985,0.61593 2.431254,0.25039 3.047357,-0.81649 0.615929,-1.06699 0.250396,-2.43125 -0.816486,-3.04736 -0.342214,-0.19771 -0.730811,-0.30097 -1.126029,-0.29921 z m -31.999597,0.18759 c -0.925076,-0.002 -1.780762,0.49024 -2.243275,1.29139 -0.713103,1.23536 -0.289703,2.81489 0.945679,3.52795 1.235218,0.71319 2.814717,0.29004 3.527951,-0.94516 0.713103,-1.23535 0.289703,-2.81489 -0.945679,-3.52795 -0.390639,-0.22563 -0.833562,-0.345 -1.284676,-0.34623 z m 76.296121,0.40463 c -0.66001,-0.004 -1.27148,0.34616 -1.60145,0.91777 -0.5069,0.87789 -0.20613,2.00049 0.67179,2.50734 0.87789,0.5069 2.00048,0.20612 2.50734,-0.67179 0.5069,-0.87789 0.20612,-2.00049 -0.67179,-2.50734 -0.27554,-0.15913 -0.58771,-0.2439 -0.90589,-0.24598 z m -32.04662,0.24959 c -0.75269,0.006 -1.44582,0.41057 -1.82211,1.06247 -0.58687,1.0163 -0.23865,2.31593 0.77773,2.90267 1.0163,0.58686 2.31592,0.23864 2.90266,-0.77774 0.58686,-1.0163 0.23864,-2.31592 -0.77773,-2.90266 -0.32833,-0.18962 -0.70142,-0.28793 -1.08055,-0.28474 z m -31.996502,0.20412 c -0.879496,-7.9e-4 -1.692447,0.46822 -2.132171,1.2299 -0.679254,1.17643 -0.27622,2.68075 0.900203,3.36001 1.176424,0.67925 2.680747,0.27622 3.360001,-0.90021 0.679255,-1.17642 0.27622,-2.68074 -0.900202,-3.36 -0.373314,-0.2156 -0.796734,-0.32929 -1.227831,-0.3297 z m 76.287852,0.36897 c -0.62432,2.7e-4 -1.20105,0.33363 -1.51309,0.87437 -0.48279,0.83608 -0.19635,1.90523 0.63975,2.38797 0.83622,0.4827 1.90541,0.19602 2.38797,-0.64027 0.48244,-0.83597 0.19605,-1.90473 -0.63975,-2.38745 -0.26595,-0.15372 -0.56771,-0.23464 -0.87488,-0.23462 z m -32.04301,0.26407 c -0.71319,0.009 -1.36874,0.39367 -1.72547,1.01131 -0.55903,0.96805 -0.22721,2.206 0.74104,2.76469 0.96793,0.55868 2.2055,0.2269 2.76417,-0.74104 0.55876,-0.9678 0.22723,-2.20533 -0.74052,-2.76417 -0.3157,-0.18221 -0.67475,-0.27577 -1.03922,-0.27079 z m -31.992877,0.21963 c -0.835707,0.001 -1.607431,0.44771 -2.0252,1.1715 -0.646779,1.12035 -0.262964,2.55289 0.857311,3.1998 1.120468,0.64714 2.553396,0.26328 3.200323,-0.85731 0.646692,-1.12049 0.262634,-2.55307 -0.857829,-3.1998 -0.357055,-0.20629 -0.762241,-0.31467 -1.174605,-0.31419 z m 44.266027,0.61185 c -0.008,1.1e-4 -0.0169,2.6e-4 -0.0253,5.2e-4 -0.67517,0.013 -1.29429,0.37843 -1.63194,0.96325 -0.53203,0.92172 -0.21624,2.10021 0.70539,2.6324 0.92171,0.53204 2.10021,0.21624 2.63239,-0.70538 0.53204,-0.92172 0.21624,-2.10021 -0.70538,-2.6324 -0.29634,-0.17118 -0.63292,-0.26036 -0.97514,-0.25838 z m -32.01561,0.23564 c -0.79314,0.004 -1.524653,0.42835 -1.921332,1.11518 -0.616281,1.0671 -0.250706,2.43175 0.816492,3.04787 1.06698,0.61593 2.43125,0.2504 3.04735,-0.81648 0.61628,-1.06711 0.25071,-2.43176 -0.81648,-3.04788 -0.34227,-0.19753 -0.73086,-0.30061 -1.12603,-0.29869 z m -31.999599,0.18707 c -0.925076,-0.002 -1.780762,0.49024 -2.243275,1.29139 -0.713105,1.23536 -0.289706,2.8149 0.945679,3.52795 1.23522,0.71319 2.814717,0.29003 3.527949,-0.94516 0.713105,-1.23535 0.289705,-2.81489 -0.945677,-3.52795 -0.390638,-0.22563 -0.833561,-0.345 -1.284676,-0.34623 z m 76.296119,0.40462 c -0.66,-0.004 -1.27148,0.34617 -1.60146,0.91778 -0.50689,0.87789 -0.20612,2.00048 0.6718,2.50734 0.87789,0.5069 2.00049,0.20612 2.50734,-0.6718 0.5069,-0.87789 0.20612,-2.00048 -0.67179,-2.50734 -0.27554,-0.15912 -0.58771,-0.24389 -0.90589,-0.24598 z m -32.04663,0.25012 c -0.75258,0.006 -1.44568,0.41024 -1.8221,1.06195 -0.58687,1.0163 -0.23865,2.31593 0.77773,2.90266 1.0163,0.58687 2.31593,0.23865 2.90266,-0.77772 0.58651,-1.01619 0.23834,-2.31543 -0.77773,-2.90215 -0.32833,-0.18963 -0.70142,-0.28794 -1.08056,-0.28474 z m -31.996492,0.20412 c -0.879494,-7.9e-4 -1.692444,0.46822 -2.132169,1.2299 -0.679254,1.17642 -0.276219,2.68075 0.900203,3.36 1.176557,0.67917 2.680925,0.27589 3.360002,-0.90072 0.679254,-1.17642 0.276219,-2.68075 -0.900203,-3.36 -0.373364,-0.21542 -0.796782,-0.32894 -1.227833,-0.32918 z m 76.288372,0.36897 c -0.62439,5e-5 -1.20135,0.33315 -1.51361,0.87385 -0.48278,0.83608 -0.19635,1.90523 0.63976,2.38797 0.83607,0.48278 1.90523,0.19635 2.38796,-0.63976 0.48279,-0.83607 0.19636,-1.90523 -0.63975,-2.38797 -0.26585,-0.15344 -0.56741,-0.23418 -0.87436,-0.23409 z m -32.04353,0.26355 c -0.71311,0.01 -1.36845,0.39415 -1.72496,1.01182 -0.55876,0.96781 -0.22723,2.20533 0.74053,2.76418 0.9678,0.55876 2.20532,0.22723 2.76417,-0.74053 0.55912,-0.96791 0.22754,-2.20582 -0.74052,-2.76469 -0.3157,-0.18221 -0.67475,-0.27576 -1.03922,-0.27078 z m -31.992877,0.22014 c -0.835599,0.001 -1.607296,0.4474 -2.025198,1.17099 -0.647131,1.12047 -0.263273,2.55339 0.857311,3.20032 1.120603,0.64705 2.553573,0.26295 3.200323,-0.85783 0.646692,-1.12049 0.262634,-2.55307 -0.857829,-3.1998 -0.357108,-0.20611 -0.762288,-0.31431 -1.174607,-0.31368 z m -32.017681,0.17002 c -0.967158,0.002 -1.860317,0.51797 -2.344045,1.35547 -0.665749,1.15301 -0.39598,2.61879 0.636654,3.45922 -0.79302,-0.30894 -1.68266,-0.24695 -2.425173,0.16898 7.93e-4,12.04974 5.29e-4,24.09948 5.29e-4,36.14922 5.3e-5,0.89265 0.476329,1.71761 1.249537,2.16369 l 50.572606,29.19822 c 0.77267,0.44562 1.72453,0.44541 2.49701,-5.3e-4 10.23243,-5.90816 20.46522,-11.81569 30.69787,-17.72347 0.23916,-1.06126 -0.14729,-2.16605 -0.99581,-2.84685 1.24381,0.47305 2.64708,-0.0263 3.31246,-1.17874 0.74868,-1.29702 0.30425,-2.95538 -0.9927,-3.70417 -1.29702,-0.74868 -2.95538,-0.30424 -3.70417,0.99271 -0.66545,1.15289 -0.3957,2.61833 0.63665,3.4587 -1.04692,-0.40783 -2.23578,-0.16187 -3.03495,0.62787 0.28434,-1.0871 -0.0973,-2.23977 -0.9741,-2.94246 1.24397,0.47373 2.64786,-0.0255 3.31349,-1.17822 0.74868,-1.29701 0.30424,-2.95537 -0.99271,-3.70417 -1.29688,-0.74876 -2.95519,-0.30457 -3.70416,0.99219 -0.66575,1.15302 -0.39598,2.61879 0.63665,3.45922 -1.04707,-0.40805 -2.2362,-0.16209 -3.03547,0.62787 0.28455,-1.08763 -0.0975,-2.24087 -0.97514,-2.94349 1.24417,0.47479 2.64897,-0.024 3.31505,-1.17719 0.74903,-1.29713 0.30455,-2.95588 -0.99271,-3.70468 -1.29701,-0.74868 -2.95537,-0.30425 -3.70417,0.9927 -0.66545,1.1529 -0.3957,2.61833 0.63666,3.45871 -1.04692,-0.40783 -2.23578,-0.16188 -3.03496,0.62786 0.28434,-1.0871 -0.0972,-2.23976 -0.9741,-2.94245 1.24398,0.47373 2.64787,-0.0255 3.31349,-1.17822 0.74869,-1.29702 0.30425,-2.95538 -0.9927,-3.70417 -1.29701,-0.74868 -2.95537,-0.30425 -3.70417,0.9927 -0.66545,1.1529 -0.3957,2.61833 0.63666,3.45871 -1.04707,-0.40806 -2.2362,-0.16209 -3.03548,0.62786 0.28445,-1.08736 -0.0974,-2.24031 -0.97461,-2.94297 1.24414,0.47441 2.64865,-0.0246 3.31452,-1.1777 0.74904,-1.29713 0.30456,-2.95588 -0.9927,-3.70469 -1.29701,-0.74868 -2.95538,-0.30424 -3.70417,0.99271 -0.66581,1.15338 -0.39558,2.61953 0.63769,3.45974 -1.04702,-0.40855 -2.2364,-0.16298 -3.03599,0.62683 0.28421,-1.08757 -0.098,-2.24057 -0.97565,-2.94297 1.24429,0.4747 2.64912,-0.0244 3.31504,-1.17771 0.74868,-1.29701 0.30424,-2.95537 -0.9927,-3.70417 -1.29702,-0.74868 -2.95538,-0.30424 -3.70417,0.99271 -0.66575,1.15301 -0.39598,2.61878 0.63665,3.45922 -1.04672,-0.40809 -2.23555,-0.16255 -3.03495,0.62683 0.28412,-1.08694 -0.0974,-2.23933 -0.97411,-2.94194 1.24398,0.47374 2.64787,-0.0255 3.3135,-1.17822 0.74868,-1.29701 0.30424,-2.95537 -0.99271,-3.70416 -1.29687,-0.74877 -2.95519,-0.30458 -3.70416,0.99218 -0.66593,1.15326 -0.39592,2.61939 0.63717,3.45974 -1.04712,-0.40841 -2.23651,-0.16264 -3.03599,0.62735 0.28455,-1.08763 -0.0975,-2.24087 -0.97514,-2.94349 1.24417,0.47479 2.64897,-0.024 3.31505,-1.17719 0.74903,-1.29713 0.30455,-2.95587 -0.99271,-3.70468 -1.29701,-0.74868 -2.95537,-0.30424 -3.70416,0.9927 -0.66582,1.15338 -0.39558,2.61953 0.63768,3.45974 -1.04716,-0.40877 -2.23681,-0.16318 -3.03651,0.62684 0.28447,-1.087 -0.0969,-2.23964 -0.97358,-2.94246 1.24397,0.47373 2.64787,-0.0255 3.3135,-1.17822 0.74868,-1.29702 0.30424,-2.95538 -0.99271,-3.70417 -1.29701,-0.74868 -2.95538,-0.30424 -3.70417,0.99271 -0.66575,1.15301 -0.39598,2.61878 0.63666,3.45922 -1.04698,-0.40819 -2.23609,-0.16243 -3.035478,0.62735 0.284448,-1.08737 -0.09737,-2.24032 -0.974617,-2.94297 1.244145,0.4744 2.648655,-0.0246 3.314525,-1.17771 0.74868,-1.29702 0.30424,-2.95538 -0.9927,-3.70417 -1.296882,-0.74876 -2.9552,-0.30457 -3.704169,0.99219 -0.665933,1.15325 -0.39592,2.61939 0.637169,3.45974 -1.047117,-0.40841 -2.236507,-0.16264 -3.03599,0.62735 0.284551,-1.08763 -0.0975,-2.24087 -0.975133,-2.94349 1.244164,0.47479 2.648961,-0.0241 3.315042,-1.17719 0.74903,-1.29713 0.304554,-2.95587 -0.992704,-3.70468 -1.297014,-0.74868 -2.955374,-0.30425 -3.704166,0.9927 -0.66575,1.15302 -0.395981,2.61879 0.636653,3.45922 -1.046972,-0.40818 -2.236089,-0.16242 -3.035474,0.62735 0.284458,-1.087 -0.09692,-2.23964 -0.973582,-2.94245 1.243975,0.47373 2.647865,-0.0255 3.31349,-1.17823 0.748681,-1.29701 0.304245,-2.95537 -0.992703,-3.70416 -1.297014,-0.74868 -2.955375,-0.30425 -3.704167,0.9927 -0.66575,1.15302 -0.39598,2.61879 0.636654,3.45922 -1.046972,-0.40818 -2.236089,-0.16242 -3.035475,0.62735 0.284449,-1.08736 -0.09737,-2.24031 -0.974616,-2.94297 1.244142,0.47441 2.648651,-0.0246 3.314525,-1.1777 0.74903,-1.29713 0.304554,-2.95588 -0.992703,-3.70469 -1.297014,-0.74868 -2.955375,-0.30424 -3.704167,0.99271 -0.665813,1.15337 -0.395576,2.61953 0.637688,3.45973 -1.047265,-0.40863 -2.236927,-0.16285 -3.036509,0.62736 0.284552,-1.08764 -0.0975,-2.24088 -0.975132,-2.94349 1.24429,0.4747 2.649127,-0.0244 3.315044,-1.17771 0.748678,-1.29701 0.304244,-2.95537 -0.992706,-3.70416 -1.297014,-0.74869 -2.955375,-0.30425 -3.704167,0.9927 -0.66575,1.15301 -0.395981,2.61878 0.636654,3.45922 -1.046972,-0.40818 -2.236087,-0.16243 -3.035472,0.62735 0.284459,-1.087 -0.09692,-2.23964 -0.973585,-2.94245 1.243976,0.47372 2.647868,-0.0255 3.313494,-1.17823 0.748678,-1.29701 0.304244,-2.95537 -0.992707,-3.70417 -1.296879,-0.74876 -2.955197,-0.30457 -3.704166,0.99219 -0.666049,1.15314 -0.396259,2.61924 0.636653,3.45974 -1.046972,-0.40818 -2.236086,-0.16242 -3.035471,0.62735 0.284551,-1.08763 -0.0975,-2.24087 -0.975136,-2.94349 1.244164,0.47479 2.648964,-0.0241 3.315044,-1.17719 0.74903,-1.29713 0.304554,-2.95587 -0.992706,-3.70468 -1.297014,-0.74868 -2.955374,-0.30424 -3.704166,0.9927 -0.665814,1.15338 -0.395576,2.61953 0.637688,3.45974 -1.047165,-0.40876 -2.236811,-0.16318 -3.036507,0.62684 0.284459,-1.08701 -0.09692,-2.23964 -0.973584,-2.94246 1.243975,0.47373 2.647868,-0.0255 3.313493,-1.17822 0.748678,-1.29702 0.304245,-2.95538 -0.992706,-3.70417 -1.29713,-0.74903 -2.955877,-0.30455 -3.704682,0.99271 -0.665512,1.15325 -0.395298,2.61907 0.637688,3.45921 -1.047118,-0.4084 -2.236507,-0.16263 -3.035991,0.62736 0.284448,-1.08737 -0.09737,-2.24032 -0.974619,-2.94298 1.244142,0.47441 2.648654,-0.0246 3.314528,-1.1777 0.748678,-1.29702 0.304244,-2.95538 -0.992706,-3.70417 -0.413639,-0.23881 -0.883012,-0.36413 -1.360638,-0.36328 z m 76.283718,0.44131 c -0.008,1.2e-4 -0.0169,2.7e-4 -0.0253,5.3e-4 -0.67518,0.013 -1.2943,0.37843 -1.63195,0.96325 -0.53238,0.92183 -0.21655,2.10071 0.70539,2.63292 0.92171,0.53203 2.1002,0.21624 2.6324,-0.70539 0.53238,-0.92183 0.21655,-2.10071 -0.70539,-2.63291 -0.29634,-0.17118 -0.63291,-0.26037 -0.97513,-0.25838 z m -32.01562,0.23565 c -0.79325,0.004 -1.52478,0.42866 -1.92133,1.11569 -0.61593,1.06699 -0.2504,2.43126 0.81649,3.04736 1.06698,0.61593 2.43125,0.2504 3.04736,-0.81649 0.61628,-1.0671 0.25071,-2.43175 -0.81649,-3.04787 -0.34226,-0.19754 -0.73086,-0.30061 -1.12603,-0.29869 z m -31.999597,0.18758 c -0.925076,-0.002 -1.780762,0.49024 -2.243275,1.2914 -0.713102,1.23535 -0.289703,2.81489 0.945679,3.52795 1.235353,0.7131 2.814892,0.2897 3.527949,-0.94568 0.713192,-1.23522 0.290034,-2.81472 -0.94516,-3.52795 -0.39084,-0.22553 -0.833949,-0.34473 -1.285193,-0.34572 z m 76.296117,0.40463 c -0.66,-0.004 -1.27148,0.34616 -1.60145,0.91777 -0.50655,0.87778 -0.20581,1.99999 0.67179,2.50683 0.87789,0.5069 2.00049,0.20612 2.50734,-0.6718 0.50655,-0.87777 0.20581,-1.99998 -0.67179,-2.50682 -0.27554,-0.15913 -0.58771,-0.24389 -0.90589,-0.24598 z m -32.04662,0.2496 c -0.75269,0.006 -1.44581,0.41056 -1.82211,1.06246 -0.58651,1.01619 -0.23834,2.31543 0.77773,2.90215 1.01616,0.58695 2.31575,0.23898 2.90266,-0.77721 0.58687,-1.0163 0.23865,-2.31593 -0.77773,-2.90267 -0.32833,-0.18962 -0.70141,-0.28793 -1.08055,-0.28473 z m -31.9965,0.20412 c -0.879493,-7.9e-4 -1.692444,0.46822 -2.132169,1.2299 -0.679254,1.17642 -0.276219,2.68075 0.900203,3.36 1.176425,0.67925 2.680748,0.27622 3.360002,-0.9002 0.679254,-1.17643 0.27622,-2.68075 -0.900203,-3.36 -0.373313,-0.2156 -0.796734,-0.3293 -1.227833,-0.3297 z m 44.24485,0.63304 c -0.71301,0.01 -1.36832,0.39382 -1.72496,1.0113 -0.55877,0.96781 -0.22723,2.20533 0.74052,2.76418 0.9678,0.55876 2.20533,0.22723 2.76417,-0.74053 0.55877,-0.9678 0.22723,-2.20532 -0.74052,-2.76417 -0.3157,-0.18221 -0.67474,-0.27577 -1.03921,-0.27078 z m -31.992885,0.21962 c -0.835705,0.001 -1.607428,0.44771 -2.025197,1.1715 -0.64678,1.12036 -0.262965,2.5529 0.85731,3.19981 1.120468,0.64713 2.553392,0.26328 3.200322,-0.85731 0.64669,-1.12049 0.26263,-2.55307 -0.857828,-3.19981 -0.357058,-0.20629 -0.762241,-0.31467 -1.174607,-0.31419 z m 44.241225,0.61185 c -0.67546,0.0129 -1.29484,0.37859 -1.63245,0.96377 -0.53204,0.92171 -0.21625,2.1002 0.70538,2.63239 0.92172,0.53203 2.1002,0.21624 2.63239,-0.70538 0.53204,-0.92172 0.21625,-2.10021 -0.70538,-2.6324 -0.28601,-0.16526 -0.60969,-0.25423 -0.93999,-0.25838 -0.02,-2.6e-4 -0.04,-2.6e-4 -0.06,0 z m -31.99081,0.23513 c -0.79324,0.004 -1.52478,0.42866 -1.92133,1.11569 -0.61628,1.0671 -0.2507,2.43176 0.81649,3.04788 1.06712,0.61584 2.43143,0.25007 3.04736,-0.81701 0.61593,-1.06698 0.2504,-2.43125 -0.81649,-3.04736 -0.34221,-0.19771 -0.73081,-0.30097 -1.12603,-0.2992 z m -31.999595,0.18758 c -0.92489,-0.002 -1.780339,0.4904 -2.242759,1.2914 -0.713192,1.23522 -0.290033,2.81472 0.945163,3.52795 1.235221,0.71319 2.814717,0.29003 3.527949,-0.94517 0.71319,-1.23521 0.290034,-2.81471 -0.94516,-3.52794 -0.39079,-0.22572 -0.833903,-0.3451 -1.285193,-0.34624 z m 76.296115,0.40463 c -0.66,-0.004 -1.27147,0.34616 -1.60145,0.91777 -0.5069,0.87789 -0.20612,2.00049 0.67179,2.50734 0.87789,0.5069 2.00049,0.20612 2.50734,-0.67179 0.5069,-0.87789 0.20613,-2.00049 -0.67179,-2.50734 -0.27554,-0.15913 -0.58771,-0.24389 -0.90589,-0.24598 z m -32.04662,0.25011 c -0.75258,0.006 -1.44568,0.41025 -1.82211,1.06195 -0.58687,1.01631 -0.23865,2.31593 0.77773,2.90267 1.0163,0.58686 2.31593,0.23865 2.90266,-0.77773 0.58687,-1.0163 0.23865,-2.31593 -0.77773,-2.90267 -0.32837,-0.18944 -0.70146,-0.28757 -1.08055,-0.28422 z m -31.996498,0.20413 c -0.879387,-8e-4 -1.692312,0.4679 -2.132168,1.22938 -0.679255,1.17642 -0.27622,2.68074 0.900202,3.36 1.176422,0.67925 2.680748,0.27622 3.360002,-0.9002 0.679254,-1.17643 0.27622,-2.68075 -0.900202,-3.36001 -0.373365,-0.21541 -0.796783,-0.32893 -1.227834,-0.32917 z m 44.244848,0.63251 c -0.71312,0.01 -1.36845,0.39415 -1.72496,1.01183 -0.55876,0.9678 -0.22723,2.20532 0.74052,2.76417 0.96794,0.55868 2.20551,0.2269 2.76418,-0.74104 0.55876,-0.9678 0.22723,-2.20532 -0.74053,-2.76417 -0.31569,-0.18221 -0.67474,-0.27577 -1.03921,-0.27079 z m -31.99288,0.22015 c -0.8356,0.001 -1.6073,0.44739 -2.0252,1.17098 -0.64678,1.12035 -0.26297,2.5529 0.85731,3.19981 1.12047,0.64713 2.5534,0.26327 3.20032,-0.85731 0.64678,-1.12036 0.26296,-2.5529 -0.85731,-3.19981 -0.35726,-0.2062 -0.76263,-0.3144 -1.17512,-0.31367 z m 44.26603,0.61133 c -0.008,1.2e-4 -0.0165,2.6e-4 -0.0248,5.3e-4 -0.67536,0.0128 -1.29472,0.37827 -1.63246,0.96325 -0.53238,0.92183 -0.21655,2.10071 0.70539,2.63291 0.92171,0.53203 2.1002,0.21624 2.63239,-0.70538 0.53239,-0.92183 0.21655,-2.10071 -0.70538,-2.63292 -0.29634,-0.17118 -0.63292,-0.26036 -0.97514,-0.25838 z m -32.01562,0.23564 c -0.79314,0.004 -1.52465,0.42835 -1.92132,1.11518 -0.61629,1.0671 -0.25071,2.43176 0.81648,3.04788 1.06699,0.61593 2.43126,0.25039 3.04736,-0.81649 0.61628,-1.0671 0.25071,-2.43176 -0.81649,-3.04788 -0.34226,-0.19753 -0.73086,-0.30061 -1.12603,-0.29869 z m -31.999593,0.18759 c -0.924784,-0.002 -1.780206,0.49008 -2.242759,1.29088 -0.713189,1.23522 -0.290031,2.81471 0.945163,3.52795 1.235221,0.71318 2.814717,0.29003 3.527949,-0.94517 0.71319,-1.23522 0.290034,-2.81471 -0.94516,-3.52795 -0.39084,-0.22553 -0.833948,-0.34473 -1.285193,-0.34571 z m 76.296123,0.40463 c -0.6599,-0.004 -1.27135,0.34584 -1.60146,0.91725 -0.5069,0.87789 -0.20612,2.00049 0.6718,2.50734 0.87789,0.5069 2.00048,0.20612 2.50734,-0.67179 0.5069,-0.87789 0.20612,-2.00049 -0.6718,-2.50734 -0.27558,-0.15895 -0.58775,-0.24354 -0.90588,-0.24546 z m -32.04663,0.24959 c -0.75269,0.006 -1.44581,0.41056 -1.82211,1.06247 -0.58651,1.01619 -0.23834,2.31543 0.77773,2.90215 1.0163,0.58686 2.31593,0.23864 2.90267,-0.77773 0.58651,-1.01619 0.23833,-2.31543 -0.77773,-2.90215 -0.32833,-0.18962 -0.70142,-0.28794 -1.08056,-0.28474 z m -31.996496,0.20412 c -0.879493,-7.9e-4 -1.692444,0.46823 -2.132168,1.2299 -0.679254,1.17643 -0.27622,2.68075 0.900202,3.36001 1.176425,0.67925 2.680748,0.27621 3.360002,-0.90021 0.679254,-1.17642 0.27622,-2.68075 -0.900202,-3.36 -0.373314,-0.2156 -0.796735,-0.3293 -1.227834,-0.3297 z m 44.244846,0.63252 c -0.71311,0.01 -1.36845,0.39415 -1.72496,1.01183 -0.55876,0.9678 -0.22723,2.20532 0.74052,2.76417 0.96781,0.55876 2.20533,0.22723 2.76418,-0.74052 0.55876,-0.9678 0.22722,-2.20533 -0.74053,-2.76417 -0.31564,-0.1824 -0.67469,-0.27613 -1.03921,-0.27131 z m -31.99288,0.22015 c -0.8356,0.001 -1.60729,0.44739 -2.0252,1.17098 -0.64713,1.12047 -0.26327,2.5534 0.85732,3.20032 1.12046,0.64714 2.55339,0.26328 3.20031,-0.85731 0.64714,-1.12047 0.26328,-2.55339 -0.85731,-3.20032 -0.35725,-0.2062 -0.76262,-0.3144 -1.17512,-0.31367 z m 44.26603,0.61133 c -0.008,1.2e-4 -0.0165,2.6e-4 -0.0248,5.3e-4 -0.67546,0.0129 -1.29484,0.37858 -1.63246,0.96376 -0.53203,0.92172 -0.21624,2.10021 0.70538,2.6324 0.92172,0.53203 2.10021,0.21624 2.6324,-0.70539 0.53239,-0.92183 0.21656,-2.10071 -0.70538,-2.63291 -0.29634,-0.17118 -0.63291,-0.26036 -0.97513,-0.25838 z m -32.01562,0.23564 c -0.79324,0.004 -1.52477,0.42867 -1.92132,1.1157 -0.61593,1.06698 -0.2504,2.43125 0.81648,3.04735 1.06699,0.61594 2.43126,0.2504 3.04736,-0.81648 0.61593,-1.06699 0.2504,-2.43126 -0.81649,-3.04736 -0.34221,-0.19771 -0.73081,-0.30097 -1.12603,-0.29921 z m -31.99959,0.18759 c -0.924891,-0.002 -1.780339,0.49039 -2.242759,1.29139 -0.713193,1.23522 -0.290034,2.81472 0.945163,3.52795 1.23522,0.71319 2.814716,0.29003 3.527948,-0.94516 0.713545,-1.23534 0.290344,-2.81522 -0.94516,-3.52847 -0.39084,-0.22553 -0.833948,-0.34473 -1.285192,-0.34571 z m -27.275856,0.39067 c -0.232286,0.88786 -0.02238,1.83324 0.56379,2.53938 -0.821902,-0.15537 -1.671304,0.0407 -2.341975,0.54054 0.09774,-0.8307 -0.156967,-1.66435 -0.702284,-2.29857 0.904417,0.1544 1.827821,-0.13647 2.480469,-0.78135 z m 71.525346,0.26355 c -0.75269,0.006 -1.44581,0.41056 -1.82211,1.06247 -0.58686,1.0163 -0.23864,2.31593 0.77773,2.90266 1.01631,0.58687 2.31593,0.23865 2.90267,-0.77773 0.58686,-1.0163 0.23864,-2.31593 -0.77773,-2.90266 -0.32833,-0.18962 -0.70142,-0.28794 -1.08056,-0.28474 z m -31.99649,0.20412 c -0.879497,-7.9e-4 -1.692448,0.46822 -2.132172,1.2299 -0.67917,1.17656 -0.275892,2.68093 0.900718,3.36 1.176304,0.67891 2.680244,0.27591 3.359484,-0.9002 0.67926,-1.17642 0.27622,-2.68075 -0.9002,-3.36 -0.37331,-0.2156 -0.79674,-0.3293 -1.22783,-0.3297 z m 44.24484,0.63304 c -0.71301,0.01 -1.36832,0.39383 -1.72496,1.01131 -0.55876,0.9678 -0.22723,2.20532 0.74053,2.76417 0.9678,0.55876 2.20532,0.22723 2.76417,-0.74052 0.55876,-0.9678 0.22723,-2.20533 -0.74052,-2.76418 -0.3157,-0.18221 -0.67475,-0.27576 -1.03922,-0.27078 z m -31.99288,0.21962 c -0.8357,0.001 -1.60743,0.44772 -2.02519,1.17151 -0.64678,1.12035 -0.26297,2.55289 0.85731,3.1998 1.12046,0.64713 2.55339,0.26328 3.20032,-0.85731 0.64678,-1.12035 0.26296,-2.55289 -0.85731,-3.1998 -0.35721,-0.20638 -0.76259,-0.31477 -1.17513,-0.3142 z m 44.24123,0.61185 c -0.67546,0.0129 -1.29484,0.37859 -1.63246,0.96377 -0.53203,0.92171 -0.21624,2.10021 0.70538,2.6324 0.92172,0.53203 2.10021,0.21624 2.6324,-0.70539 0.53204,-0.92171 0.21625,-2.10021 -0.70538,-2.6324 -0.28601,-0.16526 -0.6097,-0.25423 -0.94,-0.25838 -0.02,-2.6e-4 -0.04,-2.6e-4 -0.0599,0 z m -31.99081,0.23565 c -0.79314,0.004 -1.52465,0.42835 -1.92133,1.11517 -0.61628,1.06711 -0.25071,2.43176 0.81649,3.04788 1.06712,0.61584 2.43143,0.25007 3.04735,-0.817 0.61594,-1.06699 0.2504,-2.43126 -0.81648,-3.04736 -0.34227,-0.19754 -0.73086,-0.30061 -1.12603,-0.29869 z m -31.999601,0.18707 c -0.924891,-0.002 -1.780336,0.49039 -2.242756,1.29139 -0.71319,1.23522 -0.290031,2.81472 0.945163,3.52795 1.23522,0.71319 2.814717,0.29003 3.527949,-0.94516 0.713189,-1.23522 0.290033,-2.81472 -0.945161,-3.52795 -0.390789,-0.22572 -0.833903,-0.34509 -1.285195,-0.34623 z m -27.275853,0.39119 c -0.232108,0.88769 -0.02223,1.83284 0.56379,2.53886 -0.821902,-0.15537 -1.671304,0.0407 -2.341975,0.54053 0.09759,-0.83052 -0.157107,-1.66395 -0.702284,-2.29805 0.90442,0.15441 1.827821,-0.13647 2.480469,-0.78134 z m 71.525354,0.26355 c -0.75259,0.006 -1.44568,0.41024 -1.82212,1.06195 -0.58686,1.0163 -0.23864,2.31593 0.77774,2.90266 1.0163,0.58687 2.31593,0.23865 2.90266,-0.77773 0.58687,-1.0163 0.23865,-2.31593 -0.77773,-2.90266 -0.32838,-0.18945 -0.70146,-0.28758 -1.08055,-0.28422 z m -31.9965,0.20412 c -0.8795,-8e-4 -1.69245,0.46822 -2.13217,1.2299 -0.67882,1.17644 -0.27558,2.68042 0.90072,3.35948 1.17642,0.67926 2.68075,0.27622 3.36,-0.9002 0.67917,-1.17656 0.27589,-2.68093 -0.90072,-3.36 -0.37336,-0.21542 -0.79678,-0.32894 -1.22783,-0.32918 z m 44.24484,0.63252 c -0.71311,0.01 -1.36844,0.39414 -1.72496,1.01182 -0.55876,0.9678 -0.22722,2.20533 0.74053,2.76417 0.96793,0.55868 2.2055,0.2269 2.76417,-0.74104 0.55876,-0.9678 0.22723,-2.20532 -0.74052,-2.76417 -0.3157,-0.18221 -0.67474,-0.27577 -1.03922,-0.27078 z m -31.99288,0.22014 c -0.83559,10e-4 -1.60729,0.44739 -2.02519,1.17099 -0.64713,1.12047 -0.26328,2.55339 0.85731,3.20032 1.1206,0.64704 2.55357,0.26294 3.20032,-0.85783 0.64678,-1.12035 0.26296,-2.55289 -0.85731,-3.19981 -0.35726,-0.20619 -0.76263,-0.3144 -1.17513,-0.31367 z m 44.26604,0.61133 c -0.008,1.2e-4 -0.0165,2.7e-4 -0.0248,5.3e-4 -0.67536,0.0128 -1.29472,0.37827 -1.63246,0.96325 -0.53239,0.92183 -0.21656,2.10071 0.70538,2.63291 0.92171,0.53204 2.10021,0.21624 2.6324,-0.70538 0.53238,-0.92183 0.21655,-2.10071 -0.70538,-2.63291 -0.29634,-0.17118 -0.63292,-0.26037 -0.97514,-0.25839 z m -32.01562,0.23565 c -0.79325,0.004 -1.52478,0.42866 -1.92133,1.11569 -0.61593,1.06698 -0.2504,2.43126 0.81649,3.04736 1.0671,0.61628 2.43175,0.25071 3.04787,-0.81649 0.6162,-1.06723 0.25038,-2.43193 -0.817,-3.04788 -0.34227,-0.19753 -0.73086,-0.3006 -1.12603,-0.29868 z m -31.999599,0.18758 c -0.92489,-0.002 -1.780336,0.4904 -2.242756,1.29139 -0.713192,1.23523 -0.290034,2.81472 0.945163,3.52796 1.235355,0.7131 2.814891,0.2897 3.527952,-0.94568 0.71319,-1.23522 0.29003,-2.81472 -0.945164,-3.52795 -0.390839,-0.22554 -0.83395,-0.34474 -1.285195,-0.34572 z m -27.275853,0.39068 c -0.232248,0.88761 -0.02257,1.83275 0.563274,2.53886 -0.821642,-0.15492 -1.670613,0.0413 -2.340943,0.54105 0.0976,-0.83077 -0.157297,-1.66443 -0.7028,-2.29857 0.904418,0.1544 1.827821,-0.13647 2.480469,-0.78134 z m 71.525352,0.26355 c -0.7525,0.007 -1.44539,0.41072 -1.82159,1.06246 -0.5866,1.01605 -0.23867,2.31525 0.77721,2.90215 1.0163,0.58686 2.31593,0.23865 2.90266,-0.77773 0.58652,-1.01619 0.23834,-2.31543 -0.77773,-2.90215 -0.32833,-0.18962 -0.70141,-0.28793 -1.08055,-0.28473 z m -31.9965,0.20412 c -0.87949,-8e-4 -1.69244,0.46822 -2.13217,1.2299 -0.67916,1.17655 -0.27589,2.68092 0.90072,3.36 1.17642,0.67925 2.68075,0.27622 3.36,-0.9002 0.67917,-1.17656 0.2759,-2.68093 -0.90071,-3.36001 -0.37332,-0.21559 -0.79674,-0.32929 -1.22784,-0.32969 z m 44.24536,0.63252 c -0.7133,0.01 -1.36887,0.39399 -1.72547,1.01182 -0.55877,0.9678 -0.22723,2.20533 0.74052,2.76417 0.9678,0.55877 2.20532,0.22723 2.76417,-0.74052 0.55876,-0.9678 0.22723,-2.20532 -0.74052,-2.76417 -0.31549,-0.1823 -0.67435,-0.27603 -1.0387,-0.2713 z m -31.99339,0.22014 c -0.83571,0.001 -1.60743,0.44771 -2.0252,1.1715 -0.6467,1.12049 -0.26264,2.55307 0.85783,3.19981 1.12035,0.64678 2.55289,0.26296 3.1998,-0.85731 0.64713,-1.12047 0.26327,-2.5534 -0.85731,-3.20033 -0.35726,-0.20619 -0.76263,-0.3144 -1.17512,-0.31367 z m 12.25041,0.84697 c -0.79325,0.004 -1.52478,0.42867 -1.92133,1.1157 -0.61593,1.06698 -0.25039,2.43126 0.81649,3.04736 1.0671,0.61628 2.43176,0.25071 3.04788,-0.81649 0.61584,-1.06712 0.25006,-2.43143 -0.81701,-3.04736 -0.34221,-0.19771 -0.73081,-0.30097 -1.12603,-0.29921 z m -31.9996,0.18759 c -0.92489,-0.002 -1.78033,0.4904 -2.24275,1.29139 -0.713195,1.23522 -0.29004,2.81472 0.94516,3.52795 1.23522,0.71319 2.81472,0.29004 3.52795,-0.94516 0.71319,-1.23522 0.29003,-2.81472 -0.94516,-3.52795 -0.39079,-0.22571 -0.83391,-0.34509 -1.2852,-0.34623 z m -39.747956,0.0274 c -0.0812,0.69172 0.08165,1.39009 0.460436,1.97455 -0.648687,-0.0491 -1.296596,0.10461 -1.85415,0.43977 0.01146,-0.6507 -0.179596,-1.28888 -0.546737,-1.82624 0.695571,0.036 1.381881,-0.17201 1.940451,-0.58808 z m 12.472106,0.36328 c -0.232285,0.88786 -0.02238,1.83324 0.56379,2.53938 -0.821735,-0.15522 -1.670917,0.0408 -2.341459,0.54054 0.0976,-0.83077 -0.157297,-1.66443 -0.702799,-2.29857 0.904417,0.1544 1.827821,-0.13647 2.480468,-0.78135 z m 71.52535,0.26355 c -0.7525,0.007 -1.44539,0.41072 -1.8216,1.06247 -0.58686,1.01631 -0.23864,2.31593 0.77774,2.90267 1.01618,0.58651 2.31542,0.23833 2.90215,-0.77773 0.58686,-1.0163 0.23864,-2.31594 -0.77773,-2.90267 -0.32833,-0.18962 -0.70142,-0.28794 -1.08056,-0.28474 z m -31.9965,0.20413 c -0.87949,-8e-4 -1.69244,0.46822 -2.13216,1.22989 -0.67917,1.17656 -0.2759,2.68093 0.90071,3.36001 1.17643,0.67925 2.68075,0.27622 3.36001,-0.90021 0.67917,-1.17655 0.27589,-2.68092 -0.90072,-3.36 -0.37332,-0.2156 -0.79674,-0.32929 -1.22784,-0.32969 z m 44.24536,0.63303 c -0.71319,0.009 -1.36874,0.39367 -1.72547,1.01131 -0.55912,0.96792 -0.22754,2.20583 0.74052,2.76469 0.96794,0.55867 2.2055,0.2269 2.76417,-0.74104 0.55877,-0.9678 0.22723,-2.20533 -0.74052,-2.76417 -0.31554,-0.18212 -0.6744,-0.27568 -1.0387,-0.27079 z m -31.99339,0.21963 c -0.83571,10e-4 -1.60743,0.44771 -2.0252,1.1715 -0.64669,1.12049 -0.26263,2.55307 0.85783,3.19981 1.12035,0.64678 2.55289,0.26296 3.1998,-0.85732 0.64678,-1.12035 0.26297,-2.55289 -0.85731,-3.1998 -0.35721,-0.20638 -0.76258,-0.31477 -1.17512,-0.31419 z m 12.25041,0.84749 c -0.79314,0.004 -1.52464,0.42835 -1.92133,1.11518 -0.61628,1.0671 -0.2507,2.43175 0.81649,3.04787 1.0671,0.61628 2.43176,0.25071 3.04788,-0.81649 0.61619,-1.06723 0.25038,-2.43193 -0.81701,-3.04787 -0.34226,-0.19753 -0.73086,-0.30061 -1.12603,-0.29869 z m -31.99959,0.18707 c -0.92489,-0.002 -1.78034,0.4904 -2.24276,1.29139 -0.71319,1.23522 -0.29003,2.81472 0.94516,3.52795 1.23522,0.71319 2.81472,0.29004 3.52795,-0.94516 0.71319,-1.23522 0.29004,-2.81472 -0.94516,-3.52795 -0.39079,-0.22572 -0.8339,-0.34509 -1.28519,-0.34623 z m -39.747964,0.0274 c -0.0812,0.69172 0.08165,1.39009 0.460436,1.97455 -0.648687,-0.0491 -1.296596,0.10461 -1.85415,0.43977 0.01151,-0.65047 -0.179363,-1.28846 -0.546219,-1.82573 0.69546,0.0357 1.38157,-0.17246 1.939933,-0.58859 z m 12.472107,0.3638 c -0.232249,0.88761 -0.02257,1.83275 0.563274,2.53886 -0.821569,-0.15506 -1.670535,0.041 -2.340944,0.54054 0.09745,-0.8306 -0.157437,-1.66404 -0.702799,-2.29805 0.90442,0.1544 1.827821,-0.13647 2.480469,-0.78135 z m 71.525347,0.26355 c -0.7524,0.006 -1.44526,0.4104 -1.82159,1.06195 -0.58687,1.0163 -0.23865,2.31593 0.77773,2.90266 1.01619,0.58652 2.31543,0.23834 2.90215,-0.77773 0.58651,-1.01618 0.23833,-2.31542 -0.77773,-2.90214 -0.32833,-0.18963 -0.70142,-0.28794 -1.08056,-0.28474 z m -31.99649,0.20412 c -0.8795,-7.9e-4 -1.69245,0.46822 -2.13217,1.2299 -0.67917,1.17656 -0.27589,2.68093 0.90072,3.36 1.17656,0.67917 2.68092,0.27589 3.36,-0.90072 0.67916,-1.17656 0.27589,-2.68092 -0.90072,-3.36 -0.37336,-0.21542 -0.79678,-0.32894 -1.22783,-0.32918 z m 12.25196,0.85266 c -0.8356,0.001 -1.6073,0.4474 -2.0252,1.17099 -0.64704,1.1206 -0.26294,2.55357 0.85783,3.20032 1.12049,0.64669 2.55307,0.26264 3.19981,-0.85783 0.64677,-1.12035 0.26296,-2.55289 -0.85732,-3.1998 -0.35725,-0.2062 -0.76263,-0.3144 -1.17512,-0.31368 z m -71.923774,0.6196 c -0.0082,0.466 0.08749,0.92796 0.280085,1.35237 -0.416557,0.0135 -0.827259,0.10204 -1.212328,0.26149 -0.05421,-0.41302 -0.182526,-0.81286 -0.378788,-1.18029 0.463772,-0.0454 0.911616,-0.19353 1.311031,-0.43357 z m 84.174704,0.22738 c -0.79343,0.004 -1.5252,0.42851 -1.92184,1.11569 -0.61594,1.06699 -0.2504,2.43126 0.81648,3.04736 1.06711,0.61628 2.43176,0.25071 3.04788,-0.81648 0.6162,-1.06724 0.25038,-2.43194 -0.817,-3.04788 -0.34212,-0.19745 -0.73052,-0.30052 -1.12552,-0.29869 z m -32.00011,0.18758 c -0.92489,-0.002 -1.78034,0.4904 -2.24276,1.2914 -0.71319,1.23522 -0.29003,2.81471 0.94516,3.52795 1.23536,0.7131 2.8149,0.2897 3.52795,-0.94568 0.71319,-1.23522 0.29004,-2.81472 -0.94516,-3.52795 -0.39084,-0.22554 -0.83395,-0.34473 -1.28519,-0.34572 z m -39.747446,0.0269 c -0.0815,0.6916 0.08098,1.38996 0.459404,1.97455 -0.648515,-0.049 -1.296225,0.10471 -1.853633,0.43977 0.01151,-0.65047 -0.179364,-1.28845 -0.546219,-1.82573 0.695631,0.0358 1.381947,-0.17234 1.940448,-0.58859 z m 12.471591,0.3638 c -0.232286,0.88785 -0.02238,1.83324 0.56379,2.53938 -0.821735,-0.15522 -1.670918,0.0408 -2.34146,0.54053 0.0976,-0.83076 -0.157297,-1.66443 -0.702799,-2.29856 0.904417,0.1544 1.827821,-0.13648 2.480469,-0.78135 z m 71.525345,0.26355 c -0.7525,0.007 -1.44539,0.41072 -1.82159,1.06247 -0.58651,1.01618 -0.23834,2.31542 0.77773,2.90215 1.01605,0.58659 2.31525,0.23866 2.90215,-0.77722 0.58686,-1.0163 0.23865,-2.31593 -0.77773,-2.90267 -0.32833,-0.18962 -0.70142,-0.28793 -1.08056,-0.28473 z m -31.99649,0.20412 c -0.87931,-5.3e-4 -1.69202,0.46838 -2.13165,1.2299 -0.67926,1.17642 -0.27622,2.68075 0.9002,3.36 1.17642,0.67925 2.68075,0.27622 3.36,-0.9002 0.67917,-1.17656 0.27589,-2.68093 -0.90072,-3.36 -0.37331,-0.2156 -0.79674,-0.3293 -1.22783,-0.3297 z m 12.25196,0.85266 c -0.8357,0.001 -1.60743,0.44771 -2.0252,1.17151 -0.64669,1.12049 -0.26263,2.55307 0.85783,3.1998 1.12036,0.64678 2.5529,0.26297 3.19981,-0.85731 0.64678,-1.12035 0.26296,-2.5529 -0.85731,-3.19981 -0.35721,-0.20637 -0.76259,-0.31476 -1.17513,-0.31419 z m -71.923772,0.6196 c -0.0082,0.46599 0.08749,0.92796 0.280086,1.35237 -0.41659,0.0136 -0.827292,0.10238 -1.212329,0.262 -0.05414,-0.41319 -0.182467,-0.81321 -0.378788,-1.1808 0.463772,-0.0454 0.911616,-0.19353 1.311031,-0.43357 z m 84.174702,0.22738 c -0.79343,0.004 -1.5252,0.42851 -1.92184,1.11569 -0.61628,1.0671 -0.25071,2.43176 0.81649,3.04788 1.06723,0.61619 2.43193,0.25038 3.04787,-0.81701 0.61585,-1.06712 0.25007,-2.43143 -0.817,-3.04736 -0.34207,-0.19762 -0.73047,-0.30088 -1.12552,-0.2992 z m -32.00011,0.18758 c -0.92489,-0.002 -1.78034,0.4904 -2.24276,1.2914 -0.71319,1.23522 -0.29003,2.81471 0.94516,3.52795 1.23522,0.71319 2.81472,0.29003 3.52796,-0.94516 0.71319,-1.23522 0.29003,-2.81472 -0.94517,-3.52795 -0.39079,-0.22572 -0.8339,-0.3451 -1.28519,-0.34624 z m -39.747443,0.0274 c -0.08135,0.69166 0.08132,1.39003 0.459919,1.97456 -0.648686,-0.0491 -1.296595,0.1046 -1.854149,0.43976 0.01151,-0.65047 -0.179364,-1.28845 -0.546222,-1.82572 0.695635,0.0358 1.381951,-0.17235 1.940452,-0.5886 z m 12.47159,0.3638 c -0.232109,0.8877 -0.02222,1.83285 0.56379,2.53887 -0.821735,-0.15522 -1.670918,0.0408 -2.341459,0.54053 0.09745,-0.83059 -0.157438,-1.66404 -0.7028,-2.29805 0.90442,0.1544 1.827821,-0.13647 2.480469,-0.78135 z m 71.525353,0.26355 c -0.7524,0.006 -1.44526,0.41041 -1.8216,1.06195 -0.58686,1.01631 -0.23865,2.31593 0.77773,2.90267 1.01619,0.58651 2.31543,0.23834 2.90215,-0.77773 0.58687,-1.0163 0.23865,-2.31593 -0.77773,-2.90266 -0.32838,-0.18945 -0.70146,-0.28758 -1.08055,-0.28423 z m -31.9965,0.20361 c -0.87931,-5.3e-4 -1.69202,0.46838 -2.13165,1.2299 -0.67926,1.17642 -0.27622,2.68075 0.9002,3.36 1.17643,0.67926 2.68075,0.27622 3.36,-0.9002 0.67917,-1.17656 0.27589,-2.68093 -0.90072,-3.36001 -0.37331,-0.21559 -0.79673,-0.32929 -1.22783,-0.32969 z m 12.25197,0.85318 c -0.8356,0.001 -1.6073,0.44739 -2.0252,1.17098 -0.6467,1.12049 -0.26264,2.55308 0.85782,3.19981 1.12036,0.64678 2.5529,0.26296 3.19981,-0.85731 0.64678,-1.12036 0.26296,-2.55289 -0.85731,-3.19981 -0.35726,-0.20619 -0.76263,-0.3144 -1.17512,-0.31367 z m -71.92378,0.6196 c -0.0082,0.46599 0.08749,0.92796 0.280086,1.35237 -0.416558,0.0135 -0.82726,0.10204 -1.212329,0.26148 -0.05404,-0.41298 -0.18219,-0.81282 -0.378272,-1.18029 0.463595,-0.0455 0.911257,-0.1936 1.310515,-0.43356 z m 84.17471,0.22737 c -0.79333,0.004 -1.52508,0.42819 -1.92185,1.11518 -0.61628,1.0671 -0.25071,2.43176 0.81649,3.04788 1.0671,0.61628 2.43175,0.2507 3.04787,-0.81649 0.61628,-1.0671 0.25071,-2.43176 -0.81648,-3.04788 -0.34227,-0.19753 -0.73086,-0.30061 -1.12603,-0.29869 z m -32.00012,0.18759 c -0.92478,-0.002 -1.7802,0.49008 -2.24275,1.29088 -0.7132,1.23521 -0.29004,2.81471 0.94516,3.52795 1.23522,0.71319 2.81472,0.29003 3.52795,-0.94517 0.71319,-1.23522 0.29003,-2.81472 -0.94516,-3.52795 -0.39084,-0.22553 -0.83395,-0.34473 -1.2852,-0.34571 z m -39.747441,0.0269 c -0.08135,0.69166 0.08132,1.39003 0.45992,1.97456 -0.648687,-0.0491 -1.296596,0.1046 -1.85415,0.43976 0.01151,-0.65047 -0.179364,-1.28845 -0.546222,-1.82572 0.695635,0.0358 1.381951,-0.17235 1.940452,-0.5886 z m 12.47159,0.36432 c -0.232071,0.88745 -0.02238,1.83236 0.563271,2.53835 -0.821568,-0.15507 -1.670531,0.041 -2.34094,0.54053 0.09745,-0.83059 -0.157438,-1.66404 -0.7028,-2.29805 0.904333,0.15453 1.827723,-0.13614 2.480469,-0.78083 z m 39.529371,0.46715 c -0.87949,-7.9e-4 -1.69245,0.46823 -2.13217,1.2299 -0.67925,1.17643 -0.27622,2.68075 0.9002,3.36 1.17642,0.67926 2.68075,0.27622 3.36,-0.9002 0.67926,-1.17642 0.27622,-2.68075 -0.9002,-3.36 -0.37331,-0.2156 -0.79673,-0.32929 -1.22783,-0.3297 z m 12.25145,0.85267 c -0.8356,0.001 -1.6073,0.44739 -2.0252,1.17098 -0.64705,1.12061 -0.26295,2.55358 0.85783,3.20033 1.12035,0.64678 2.55289,0.26296 3.1998,-0.85732 0.64713,-1.12047 0.26328,-2.55339 -0.85731,-3.20032 -0.35726,-0.2062 -0.76263,-0.3144 -1.17512,-0.31367 z m -84.473917,0.39119 c 0.03186,0.24098 0.08902,0.47793 0.170534,0.70693 -0.228944,0.0327 -0.454242,0.0872 -0.672827,0.16278 -0.04387,-0.22688 -0.109278,-0.44906 -0.195339,-0.66353 0.239141,-0.044 0.472977,-0.11314 0.697632,-0.20618 z m 12.55014,0.22841 c -0.0082,0.46599 0.08749,0.92796 0.280085,1.35237 -0.416558,0.0135 -0.82726,0.10204 -1.212329,0.26148 -0.0542,-0.41302 -0.182525,-0.81286 -0.378788,-1.18029 0.463772,-0.0454 0.911617,-0.19353 1.311032,-0.43356 z m 84.174707,0.22737 c -0.79343,0.004 -1.52521,0.42851 -1.92185,1.1157 -0.61593,1.06698 -0.25039,2.43125 0.81649,3.04736 1.0671,0.61628 2.43176,0.2507 3.04788,-0.81649 0.61593,-1.06699 0.25039,-2.43126 -0.81649,-3.04736 -0.34222,-0.19771 -0.73081,-0.30097 -1.12603,-0.29921 z m -32.00011,0.18759 c -0.9249,-0.002 -1.78034,0.4904 -2.24276,1.29139 -0.71319,1.23522 -0.29003,2.81472 0.94516,3.52795 1.23535,0.71311 2.81489,0.28971 3.52795,-0.94568 0.71319,-1.23522 0.29003,-2.81471 -0.94516,-3.52795 -0.39084,-0.22553 -0.83395,-0.34473 -1.28519,-0.34571 z m -39.747449,0.0269 c -0.0815,0.6916 0.08098,1.38996 0.459404,1.97456 -0.648568,-0.0488 -1.296284,0.10504 -1.853634,0.44028 0.01161,-0.65065 -0.179263,-1.28883 -0.546222,-1.82625 0.695635,0.0358 1.381951,-0.17234 1.940452,-0.58859 z m 12.472106,0.3638 c -0.232426,0.88777 -0.02273,1.83315 0.563274,2.53938 -0.821735,-0.15522 -1.670918,0.0408 -2.341459,0.54054 0.0976,-0.83077 -0.157297,-1.66443 -0.7028,-2.29857 0.904587,0.15457 1.828224,-0.13631 2.480985,-0.78135 z m 39.528853,0.46767 c -0.87949,-7.9e-4 -1.69244,0.46823 -2.13217,1.2299 -0.67925,1.17643 -0.27622,2.68075 0.9002,3.36 1.17643,0.67926 2.68075,0.27622 3.36001,-0.9002 0.67925,-1.17642 0.27622,-2.68075 -0.90021,-3.36 -0.37331,-0.2156 -0.79673,-0.3293 -1.22783,-0.3297 z m 12.25145,0.85266 c -0.83552,0.002 -1.60701,0.44788 -2.02468,1.17151 -0.64678,1.12035 -0.26297,2.55289 0.85731,3.1998 1.12035,0.64678 2.55289,0.26297 3.1998,-0.85731 0.64678,-1.12035 0.26297,-2.55289 -0.85731,-3.1998 -0.35721,-0.20638 -0.76258,-0.31477 -1.17512,-0.3142 z m -84.473915,0.3912 c 0.03169,0.24095 0.08868,0.47791 0.170016,0.70693 -0.228785,0.0329 -0.453909,0.0876 -0.672309,0.1633 -0.04384,-0.22706 -0.109246,-0.44942 -0.195339,-0.66405 0.239141,-0.044 0.472977,-0.11314 0.697632,-0.20618 z m 12.55014,0.2284 c -0.0082,0.466 0.08749,0.92797 0.280085,1.35238 -0.416383,0.0135 -0.826905,0.1021 -1.211813,0.26148 -0.05437,-0.41305 -0.182861,-0.8129 -0.379304,-1.18029 0.463772,-0.0454 0.911617,-0.19353 1.311032,-0.43357 z m 52.174595,0.41497 c -0.92489,-0.002 -1.78034,0.49039 -2.24276,1.29139 -0.71319,1.23522 -0.29003,2.81471 0.94516,3.52795 1.23522,0.71319 2.81472,0.29003 3.52795,-0.94516 0.7132,-1.23522 0.29004,-2.81472 -0.94516,-3.52795 -0.39079,-0.22572 -0.8339,-0.34509 -1.28519,-0.34623 z m -39.747447,0.0274 c -0.08135,0.69166 0.08132,1.39002 0.45992,1.97455 -0.648687,-0.0491 -1.296596,0.10461 -1.85415,0.43977 0.0114,-0.6503 -0.179467,-1.28808 -0.546221,-1.82521 0.695695,0.0357 1.382019,-0.17268 1.940451,-0.58911 z m 12.471587,0.3638 c -0.23211,0.88769 -0.0222,1.83284 0.56379,2.53886 -0.82173,-0.15522 -1.67091,0.0408 -2.34146,0.54054 0.0974,-0.8306 -0.15743,-1.66405 -0.7028,-2.29806 0.90442,0.1544 1.82783,-0.13647 2.48047,-0.78134 z m 39.52937,0.46767 c -0.87938,-8e-4 -1.69231,0.4679 -2.13217,1.22938 -0.67925,1.17642 -0.27622,2.68075 0.90021,3.36 1.17642,0.67926 2.68074,0.27622 3.36,-0.9002 0.67925,-1.17643 0.27622,-2.68075 -0.90021,-3.36 -0.37336,-0.21542 -0.79678,-0.32894 -1.22783,-0.32918 z m 12.25145,0.85266 c -0.83541,0.001 -1.60687,0.44755 -2.02468,1.17099 -0.64713,1.12047 -0.26328,2.55339 0.85731,3.20032 1.12049,0.64669 2.55307,0.26263 3.19981,-0.85783 0.64678,-1.12035 0.26296,-2.55289 -0.85732,-3.1998 -0.35726,-0.2062 -0.76262,-0.31441 -1.17512,-0.31368 z m -84.473913,0.39119 c 0.03186,0.24098 0.08902,0.47793 0.170532,0.70693 -0.228944,0.0327 -0.454242,0.0872 -0.672827,0.16279 -0.0437,-0.22687 -0.108935,-0.44905 -0.194818,-0.66353 0.238963,-0.0441 0.472625,-0.11318 0.697113,-0.20619 z m 12.55014,0.22841 c -0.0082,0.46599 0.08749,0.92796 0.280085,1.35237 -0.416383,0.0135 -0.826905,0.1021 -1.211813,0.26149 -0.05437,-0.41306 -0.182861,-0.8129 -0.379304,-1.18029 0.463773,-0.0454 0.911617,-0.19353 1.311032,-0.43357 z m 52.174593,0.41496 c -0.92478,-0.002 -1.7802,0.49008 -2.24276,1.29088 -0.71354,1.23533 -0.29034,2.81522 0.94516,3.52847 1.23536,0.7131 2.8149,0.2897 3.52796,-0.94568 0.71318,-1.23522 0.29003,-2.81472 -0.94517,-3.52795 -0.39084,-0.22554 -0.83395,-0.34473 -1.28519,-0.34572 z m -39.747445,0.0269 c -0.0815,0.69161 0.08098,1.38996 0.459402,1.97456 -0.648513,-0.049 -1.296226,0.10471 -1.853632,0.43977 0.0114,-0.6503 -0.179466,-1.28808 -0.546221,-1.82522 0.695695,0.0357 1.382019,-0.17267 1.940451,-0.58911 z m 12.472105,0.36381 c -0.23239,0.88753 -0.0229,1.83265 0.56276,2.53886 -0.82164,-0.15492 -1.67061,0.0413 -2.34094,0.54105 0.0976,-0.83077 -0.1573,-1.66443 -0.7028,-2.29857 0.90458,0.15458 1.82822,-0.13631 2.48098,-0.78134 z m 39.52886,0.46767 c -0.8795,-8e-4 -1.69245,0.46822 -2.13217,1.2299 -0.67926,1.17642 -0.27622,2.68074 0.9002,3.36 1.17642,0.67925 2.68075,0.27622 3.36,-0.90021 0.67926,-1.17642 0.27622,-2.68074 -0.9002,-3.36 -0.37332,-0.2156 -0.79674,-0.32929 -1.22783,-0.32969 z m -72.222471,1.24385 c 0.03169,0.24096 0.08868,0.47791 0.170016,0.70693 -0.228769,0.0328 -0.453892,0.0873 -0.672311,0.16278 -0.04387,-0.22688 -0.109276,-0.44906 -0.195337,-0.66352 0.239141,-0.044 0.472977,-0.11314 0.697632,-0.20619 z m 12.55014,0.22841 c -0.0082,0.46599 0.08749,0.92796 0.280085,1.35237 -0.416382,0.0135 -0.826905,0.1021 -1.211812,0.26148 -0.05437,-0.41305 -0.182862,-0.81289 -0.379304,-1.18029 0.463772,-0.0454 0.911616,-0.19353 1.311031,-0.43356 z m 52.175111,0.41496 c -0.92508,-0.002 -1.78076,0.49024 -2.24327,1.2914 -0.71319,1.23521 -0.29004,2.81471 0.94516,3.52794 1.23521,0.7132 2.81471,0.29004 3.52795,-0.94516 0.71319,-1.23522 0.29003,-2.81472 -0.94517,-3.52795 -0.39063,-0.22563 -0.83356,-0.345 -1.28467,-0.34623 z m -39.74796,0.0274 c -0.0814,0.69166 0.0813,1.39003 0.45992,1.97456 -0.64869,-0.0491 -1.2966,0.1046 -1.854155,0.43976 0.01162,-0.65065 -0.179261,-1.28882 -0.546219,-1.82624 0.695571,0.036 1.381884,-0.17201 1.940454,-0.58808 z m 12.47159,0.3638 c -0.23211,0.8877 -0.0222,1.83285 0.56379,2.53887 -0.82174,-0.15522 -1.67092,0.0408 -2.34146,0.54053 0.0976,-0.83077 -0.1573,-1.66443 -0.7028,-2.29857 0.90433,0.15454 1.82772,-0.13614 2.48047,-0.78083 z m 39.52937,0.46716 c -0.8795,-8e-4 -1.69245,0.46822 -2.13217,1.2299 -0.67926,1.17642 -0.27622,2.68074 0.9002,3.36 1.17643,0.67925 2.68075,0.27622 3.36,-0.90021 0.67926,-1.17642 0.27622,-2.68074 -0.9002,-3.36 -0.37332,-0.2156 -0.79674,-0.32929 -1.22783,-0.32969 z m -72.221953,1.24385 c 0.03166,0.24113 0.08865,0.47826 0.170016,0.70745 -0.228944,0.0327 -0.454242,0.0872 -0.672827,0.16278 -0.0437,-0.22687 -0.108934,-0.44905 -0.194818,-0.66353 0.239159,-0.0442 0.472995,-0.11348 0.697629,-0.2067 z m 12.549624,0.22825 c -0.0082,0.46599 0.08749,0.92796 0.280086,1.35237 -0.416383,0.0135 -0.826905,0.1021 -1.211813,0.26148 -0.05427,-0.41284 -0.182584,-0.8125 -0.378788,-1.17977 0.463637,-0.0457 0.911299,-0.19394 1.310515,-0.43408 z m 52.175109,0.41496 c -0.92508,-0.002 -1.78076,0.49024 -2.24328,1.29139 -0.71319,1.23522 -0.29003,2.81472 0.94517,3.52795 1.23522,0.7132 2.81472,0.29004 3.52795,-0.94516 0.71319,-1.23522 0.29003,-2.81472 -0.94516,-3.52795 -0.39064,-0.22563 -0.83357,-0.345 -1.28468,-0.34623 z m -39.74796,0.0274 c -0.0814,0.69166 0.0813,1.39003 0.45992,1.97455 -0.64869,-0.0491 -1.2966,0.10461 -1.85415,0.43977 0.0114,-0.6503 -0.17947,-1.28808 -0.54622,-1.82521 0.69569,0.0357 1.38201,-0.17268 1.94045,-0.58911 z m 12.47159,0.3638 c -0.23225,0.88761 -0.0226,1.83275 0.56327,2.53886 -0.82157,-0.15506 -1.67053,0.041 -2.34094,0.54054 0.0974,-0.8306 -0.15744,-1.66404 -0.7028,-2.29805 0.90442,0.1544 1.82782,-0.13648 2.48047,-0.78135 z m -32.69258,1.71101 c 0.03166,0.24113 0.08865,0.47826 0.170015,0.70745 -0.228943,0.0327 -0.454241,0.0872 -0.672827,0.16278 -0.0437,-0.22687 -0.108937,-0.44905 -0.194821,-0.66353 0.239163,-0.0442 0.472996,-0.11348 0.697633,-0.2067 z m 12.549621,0.22892 c -0.0082,0.466 0.08749,0.92797 0.280088,1.35238 -0.416383,0.0135 -0.826905,0.1021 -1.211813,0.26148 -0.05437,-0.41305 -0.182862,-0.8129 -0.379304,-1.18029 0.463772,-0.0454 0.911616,-0.19353 1.311029,-0.43357 z m 52.175109,0.41497 c -0.92507,-0.002 -1.78076,0.49023 -2.24327,1.29139 -0.71319,1.23522 -0.29003,2.81472 0.94516,3.52795 1.23536,0.7131 2.81489,0.2897 3.52795,-0.94568 0.71319,-1.23522 0.29003,-2.81471 -0.94516,-3.52795 -0.39069,-0.22545 -0.83361,-0.34464 -1.28468,-0.34571 z m -39.74796,0.0269 c -0.0815,0.6916 0.081,1.38996 0.4594,1.97455 -0.64851,-0.049 -1.29622,0.10471 -1.85363,0.43977 0.0114,-0.6503 -0.17946,-1.28808 -0.54622,-1.82521 0.6957,0.0357 1.38202,-0.17268 1.94045,-0.58911 z m 12.47211,0.3638 c -0.23229,0.88785 -0.0224,1.83324 0.56379,2.53938 -0.8219,-0.15537 -1.67131,0.0407 -2.34198,0.54054 0.0976,-0.83077 -0.1573,-1.66443 -0.7028,-2.29857 0.90459,0.15457 1.82823,-0.13631 2.48099,-0.78135 z m -32.693098,1.71152 c 0.03153,0.24094 0.08834,0.4779 0.1695,0.70694 -0.22877,0.0328 -0.453893,0.0873 -0.672312,0.16278 -0.04387,-0.22689 -0.109275,-0.44907 -0.195336,-0.66353 0.239318,-0.044 0.473326,-0.11311 0.698148,-0.20619 z m 12.549618,0.22841 c -0.008,0.46599 0.0875,0.92796 0.28009,1.35237 -0.41638,0.0135 -0.8269,0.1021 -1.21181,0.26149 -0.0544,-0.41305 -0.18286,-0.8129 -0.37931,-1.18029 0.46378,-0.0454 0.91162,-0.19353 1.31103,-0.43357 z m 12.42715,0.44231 c -0.0814,0.69167 0.0813,1.39003 0.45992,1.97456 -0.64868,-0.0491 -1.29659,0.1046 -1.85415,0.43977 0.0115,-0.65048 -0.17936,-1.28846 -0.54622,-1.82573 0.69564,0.0358 1.38195,-0.17234 1.94045,-0.5886 z m 12.47159,0.36381 c -0.23196,0.88777 -0.0219,1.83293 0.56431,2.53886 -0.8219,-0.15537 -1.6713,0.0407 -2.34198,0.54053 0.0976,-0.83052 -0.1571,-1.66396 -0.70228,-2.29805 0.90425,0.15423 1.82742,-0.13663 2.47995,-0.78134 z m -32.692576,1.711 c 0.03166,0.24114 0.08865,0.47826 0.170016,0.70745 -0.228944,0.0327 -0.454242,0.0872 -0.672828,0.16278 -0.0437,-0.22686 -0.108937,-0.44904 -0.19482,-0.66352 0.239159,-0.0442 0.472995,-0.11349 0.697632,-0.20671 z m 12.549626,0.22893 c -0.008,0.46599 0.0875,0.92796 0.28009,1.35237 -0.41636,0.0134 -0.82687,0.10176 -1.21182,0.26097 -0.0543,-0.41285 -0.18258,-0.81251 -0.37879,-1.17978 0.4636,-0.0455 0.91126,-0.1936 1.31052,-0.43356 z m 12.42714,0.44183 c -0.0812,0.69173 0.0817,1.39009 0.46044,1.97456 -0.64886,-0.0492 -1.29696,0.10449 -1.85467,0.43976 0.0114,-0.65029 -0.17946,-1.28808 -0.54621,-1.82521 0.69569,0.0357 1.38201,-0.17267 1.94044,-0.58911 z m 12.47159,0.3638 c -0.2321,0.8877 -0.0222,1.83285 0.56379,2.53887 -0.82173,-0.15522 -1.67091,0.0408 -2.34145,0.54053 0.0974,-0.83059 -0.15744,-1.66404 -0.7028,-2.29805 0.90442,0.1544 1.82782,-0.13647 2.48046,-0.78135 z m -32.692574,1.71101 c 0.03166,0.24114 0.08865,0.47826 0.170016,0.70745 -0.228944,0.0327 -0.454242,0.0872 -0.672827,0.16278 -0.04387,-0.22688 -0.109276,-0.44906 -0.195337,-0.66352 0.239337,-0.0442 0.473347,-0.11345 0.698148,-0.20671 z m 12.549624,0.22893 c -0.008,0.46599 0.0875,0.92796 0.28009,1.35237 -0.41639,0.0135 -0.82691,0.1021 -1.21182,0.26148 -0.0544,-0.41305 -0.18286,-0.81289 -0.3793,-1.18029 0.46377,-0.0454 0.91161,-0.19353 1.31103,-0.43356 z m 12.42715,0.44183 c -0.0814,0.69166 0.0813,1.39003 0.45992,1.97456 -0.64869,-0.0491 -1.2966,0.1046 -1.85415,0.43976 0.0114,-0.65029 -0.17947,-1.28808 -0.54622,-1.82521 0.69569,0.0357 1.38201,-0.17268 1.94045,-0.58911 z m 12.4721,0.3638 c -0.23228,0.88786 -0.0224,1.83324 0.56379,2.53938 -0.8219,-0.15537 -1.6713,0.0407 -2.34197,0.54054 0.0976,-0.83077 -0.1573,-1.66443 -0.7028,-2.29857 0.90458,0.15458 1.82822,-0.13631 2.48098,-0.78135 z m -32.69309,1.71152 c 0.0315,0.24095 0.0883,0.4779 0.1695,0.70694 -0.22879,0.0329 -0.45391,0.0876 -0.67231,0.1633 -0.0438,-0.22706 -0.10925,-0.44942 -0.19534,-0.66405 0.23932,-0.044 0.47333,-0.1131 0.69815,-0.20619 z m 12.54962,0.22842 c -0.008,0.46603 0.0878,0.928 0.2806,1.35237 -0.41655,0.0135 -0.82726,0.10204 -1.21232,0.26148 -0.0544,-0.41305 -0.18287,-0.8129 -0.37931,-1.18029 0.46377,-0.0454 0.91162,-0.19353 1.31103,-0.43356 z m 12.42715,0.44235 c -0.0812,0.69172 0.0817,1.39009 0.46044,1.97455 -0.64886,-0.0492 -1.29697,0.1045 -1.85467,0.43977 0.0114,-0.6503 -0.17947,-1.28808 -0.54622,-1.82521 0.6957,0.0357 1.38202,-0.17268 1.94045,-0.58911 z m -20.22099,2.07532 c 0.0317,0.24096 0.0887,0.47792 0.17002,0.70694 -0.22895,0.0327 -0.45424,0.0872 -0.67283,0.16278 -0.0437,-0.22687 -0.10894,-0.44905 -0.19482,-0.66353 0.23914,-0.044 0.47298,-0.11314 0.69763,-0.20619 z m 12.54962,0.22841 c -0.008,0.46603 0.0878,0.928 0.28061,1.35237 -0.41653,0.0133 -0.82723,0.1017 -1.21233,0.26097 -0.0544,-0.41287 -0.18292,-0.81254 -0.37931,-1.17977 0.46377,-0.0454 0.91162,-0.19353 1.31103,-0.43357 z m -7.79384,2.51716 c 0.0317,0.24096 0.0887,0.47791 0.17002,0.70693 -0.22894,0.0327 -0.45424,0.0872 -0.67283,0.16278 -0.0439,-0.22688 -0.10927,-0.44906 -0.19533,-0.66352 0.23931,-0.044 0.47332,-0.11311 0.69814,-0.20619 z m 12.54962,0.22841 c -0.008,0.46603 0.0878,0.928 0.28061,1.35237 -0.41656,0.0135 -0.82726,0.10204 -1.21233,0.26148 -0.0544,-0.41305 -0.18286,-0.81289 -0.37931,-1.18028 0.46378,-0.0454 0.91162,-0.19353 1.31103,-0.43357 z m -7.79383,2.51716 c 0.0316,0.24114 0.0886,0.47826 0.17001,0.70745 -0.22894,0.0327 -0.45424,0.0872 -0.67283,0.16278 -0.0437,-0.22686 -0.10893,-0.44905 -0.19482,-0.66352 0.23917,-0.0442 0.473,-0.11349 0.69764,-0.20671 z"
       style="color:#000000;font-style:normal;font-variant:normal;font-weight:normal;font-stretch:normal;font-size:medium;line-height:normal;font-family:sans-serif;font-variant-ligatures:normal;font-variant-position:normal;font-variant-caps:normal;font-variant-numeric:normal;font-variant-alternates:normal;font-variant-east-asian:normal;font-feature-settings:normal;font-variation-settings:normal;text-indent:0;text-align:start;text-decoration:none;text-decoration-line:none;text-decoration-style:solid;text-decoration-color:#000000;letter-spacing:normal;word-spacing:normal;text-transform:none;writing-mode:lr-tb;direction:ltr;text-orientation:mixed;dominant-baseline:auto;baseline-shift:baseline;text-anchor:start;white-space:normal;shape-padding:0;shape-margin:0;inline-size:0;clip-rule:nonzero;display:inline;overflow:visible;visibility:visible;isolation:auto;mix-blend-mode:normal;color-interpolation:sRGB;color-interpolation-filters:linearRGB;solid-color:#000000;solid-opacity:1;vector-effect:none;fill:url(#linearGradient7720);fill-opacity:1;fill-rule:nonzero;stroke:none;stroke-width:4.99531;stroke-linecap:round;stroke-linejoin:round;stroke-miterlimit:4;stroke-dasharray:none;stroke-dashoffset:0;stroke-opacity:1;color-rendering:auto;image-rendering:auto;shape-rendering:auto;text-rendering:auto;enable-background:accumulate;stop-color:#000000"
       clip-path="none"
       id="path4568" />
  </g>
</svg>
